<?xml version="1.0" encoding="UTF-8" standalone="no"?>
<!-- Created with Inkscape (http://www.inkscape.org/) -->

<svg
   version="1.1"
   id="svg1"
   width="6000"
   height="6000"
   viewBox="0 0 6000 6000"
   sodipodi:docname="notes-logo.svg"
   inkscape:version="1.4.2 (f4327f4, 2025-05-13)"
   xmlns:inkscape="http://www.inkscape.org/namespaces/inkscape"
   xmlns:sodipodi="http://sodipodi.sourceforge.net/DTD/sodipodi-0.dtd"
   xmlns="http://www.w3.org/2000/svg"
   xmlns:svg="http://www.w3.org/2000/svg">
  <defs
     id="defs1" />
  <sodipodi:namedview
     id="namedview1"
     pagecolor="#505050"
     bordercolor="#ffffff"
     borderopacity="1"
     inkscape:showpageshadow="0"
     inkscape:pageopacity="0"
     inkscape:pagecheckerboard="1"
     inkscape:deskcolor="#505050"
     inkscape:zoom="0.1425"
     inkscape:cx="2996.4912"
     inkscape:cy="3000"
     inkscape:window-width="1920"
     inkscape:window-height="1057"
     inkscape:window-x="-8"
     inkscape:window-y="-8"
     inkscape:window-maximized="1"
     inkscape:current-layer="g1" />
  <g
     inkscape:groupmode="layer"
     inkscape:label="Image"
     id="g1">
    <path
       style="fill:#eeeeee;stroke:none"
       d="m 5260,795.83952 c -15.7174,5.41406 -33.2174,4.94954 -49.3333,9.79199 -19.7914,5.94694 -38.2731,18.22038 -55.0472,29.70898 -13.9216,9.53484 -27.4502,20.25098 -37.8737,33.99284 -14.1062,18.59701 -24.0925,40.30664 -30.4968,62.66667 -1.0592,3.69792 -3.3815,6.889 -4.1832,10.66667 -1.0206,4.80794 0.1005,9.83659 -0.8568,14.66666 -0.932,4.7028 -4.0231,8.55469 -4.6843,13.33334 -1.6035,11.58984 -0.1914,24.30078 -0.1914,36.00003 v 72 382.6666 196 c 0,17.1589 1.4935,34.2927 -4.1604,50.6667 -1.3425,3.8883 -0.1368,10.889 -4.2572,13.2181 -4.9209,2.7819 -6.7233,-3.1299 -8.2894,-6.3301 -1.9255,-3.9345 -5.5521,-6.3626 -7.9473,-9.9394 -1.9655,-2.9349 -2.846,-6.4694 -4.6842,-9.5144 -18.6569,-30.9049 -33.9749,-63.6009 -55.4144,-92.7675 -16.0811,-21.877 -29.8538,-45.2442 -46.3314,-66.6667 -5.2272,-6.7959 -12.0898,-12.404 -17.7099,-18.8929 -3.891,-4.4922 -6.2009,-9.9632 -10.0638,-14.4404 -10.1879,-11.808 -22.1049,-22.0674 -32.6286,-33.5606 -5.5788,-6.0928 -9.6511,-13.8613 -15.3714,-19.5814 -4.1101,-4.1097 -9.8405,-6.2278 -14.2481,-10.0638 -9.8542,-8.5765 -18.3278,-18.7285 -28.2272,-27.2695 -4.0739,-3.515 -9.0534,-5.6042 -13.2142,-9.0166 -7.0723,-5.8001 -12.8828,-13.1911 -20.1191,-18.7572 -3.1407,-2.4156 -6.9701,-3.5169 -10.1009,-5.9423 -34.9349,-27.0635 -70.4864,-52.3311 -108.5658,-75.1501 -47.736,-28.6055 -98.2044,-51.5964 -149.3333,-73.0081 -32.8591,-13.7608 -65.3461,-27.778 -98.6667,-40.2585 -29.5947,-11.0846 -60.5215,-20.0534 -90.6667,-28.1491 -9.0006,-2.417 -17.6142,-6.8649 -26.6666,-9.249 -3.4958,-0.9206 -7.1706,-0.4789 -10.6667,-1.4177 -9.0003,-2.417 -17.6143,-6.8649 -26.6667,-9.249 -3.4896,-0.9189 -7.1552,-0.5394 -10.6666,-1.3704 -17.9271,-4.2422 -35.5118,-9.9645 -53.3334,-14.6296 -5.2223,-1.3668 -10.7373,-0.1276 -16,-1.3704 -3.7275,-0.8806 -6.9821,-2.9925 -10.6666,-3.9629 -13.8832,-3.6563 -28.5964,-4.5114 -42.6667,-7.3991 -12.8516,-2.6377 -25.7295,-6.4622 -38.6667,-8.8962 -6.5638,-1.235 -13.3626,-0.4082 -20,-1.7705 -4.1481,-0.8512 -7.7942,-3.1614 -12,-3.7366 -7.1058,-0.9717 -14.208,-0.294 -21.3333,-1.7705 -4.1283,-0.8555 -7.7917,-3.0547 -12,-3.5772 -7.043,-0.8747 -14.262,0.2725 -21.3333,-0.4033 -7.4613,-0.7132 -14.0957,-4.0313 -21.3334,-4.93 -13.1504,-1.6328 -26.7412,-0.1992 -40,-1.6537 -5.123,-0.5618 -9.4922,-3.4056 -14.6666,-3.7838 -18.1817,-1.3294 -36.4883,0.3561 -54.6667,-1.5505 -4.6846,-0.4912 -8.6797,-3.1009 -13.3333,-3.6787 -11.669,-1.4489 -24.2425,-0.1771 -36,-0.1771 h -72 c -22.918,0 -46.4812,-1.5979 -69.3334,0.073 -4.3401,0.3173 -7.847,2.4169 -12,3.3746 -5.0306,1.1602 -10.8388,1.1683 -16,1.6595 -10.5895,1.0078 -21.4524,-0.9062 -32,0.4034 -6.7737,0.8411 -13.0586,3.9446 -20,4.7757 -6.5739,0.7871 -13.5218,-0.5651 -20,0.7786 -6.4163,1.3307 -11.9593,4.0674 -18.6666,4.709 -5.7162,0.5465 -11.6823,-0.4808 -17.3334,0.5915 -4.6552,0.8831 -8.6396,3.6907 -13.3333,4.5286 -4.4056,0.7865 -8.9447,-0.028 -13.3333,0.8047 -4.21,0.7988 -7.8366,3.2747 -12,4.2581 -4.8373,1.1426 -9.8252,0.1566 -14.6667,1.0752 -11.2393,2.1325 -22.1924,6.9551 -33.3333,9.5915 -10.5782,2.5033 -21.4912,3.9362 -32,6.7038 -14.0267,3.6943 -27.656,9.4482 -41.3334,14.1748 -29.8766,10.3249 -59.791,21.6038 -85.2809,41.2357 -6.8141,5.248 -12.6484,11.9928 -18.7191,18.0628 -7.3239,7.3232 -16.0869,14.5745 -21.889,23.1986 -11.8942,17.6796 -22.0745,39.6829 -28.0462,60.0009 -1.1488,3.9089 -0.4333,8.0648 -1.4886,12 -0.9974,3.7191 -3.374,6.8835 -4.1771,10.6667 -1.0189,4.8014 0.025,9.8278 -0.8385,14.6667 -0.916,5.1315 -4.0703,9.4775 -4.7168,14.6666 -1.2927,10.3793 -0.1771,21.5433 -0.1771,32 v 64 301.3334 208 c 0,17.1588 1.4935,34.2929 -4.1605,50.6666 -1.3834,4.0069 -0.073,12.2624 -5.3509,13.6657 -7.9736,2.1201 -10.7646,-9.9502 -13.8343,-14.4137 -2.1891,-3.183 -5.4063,-5.4733 -7.4147,-8.8125 -11.1139,-18.4798 -23.3093,-36.544 -35.3506,-54.4404 -3.3864,-5.0329 -8.4678,-8.7211 -11.8962,-13.7129 -2.233,-3.2513 -3.3545,-7.0111 -5.8037,-10.167 -9.5875,-12.3526 -20.164,-23.7152 -29.7168,-36.1716 -2.9365,-3.8291 -4.8558,-8.2422 -7.9775,-11.9466 -6.8252,-8.0996 -15.0153,-14.9206 -21.9557,-22.8948 -4.2976,-4.9379 -6.8467,-10.9499 -11.2829,-15.7728 -11.2448,-12.225 -23.3496,-24.9554 -35.9229,-35.8086 -4.4772,-3.8646 -9.9554,-6.1612 -14.4394,-10.0638 -8.4251,-7.3327 -15.5944,-16.0407 -24.2272,-23.1677 -11.2979,-9.3274 -23.6602,-17.9808 -35.6143,-26.2861 -4.5797,-3.182 -7.8512,-7.9391 -12.4381,-11.1501 -26.653,-18.6588 -53.2702,-37.4134 -81.281,-54.1985 -43.1709,-25.8698 -88.5231,-49.6778 -134.6666,-70.0524 -6.8809,-3.0381 -14.4305,-4.723 -21.3334,-7.8728 -23.1868,-10.5797 -46.784,-21.0537 -70.6666,-30.0081 -23.216,-8.7044 -47.3239,-15.1566 -70.6667,-23.2233 -57.6982,-19.9395 -115.9543,-36.1397 -174.6667,-51.5082 -5.222,-1.3668 -10.7374,-0.1276 -16,-1.3704 -11.1422,-2.6315 -22.0937,-7.459 -33.3333,-9.5915 -4.8413,-0.9186 -9.8301,0.067 -14.6667,-1.0752 -4.1619,-0.983 -7.7911,-3.4596 -12,-4.2581 -4.3888,-0.8327 -8.9274,-0.018 -13.3333,-0.8047 -4.6937,-0.8379 -8.6782,-3.6455 -13.3333,-4.5286 -6.9882,-1.3259 -14.2629,-0.4792 -21.3334,-1.9444 -3.6852,-0.7636 -6.9756,-2.6946 -10.6666,-3.389 -6.993,-1.3157 -14.2609,-0.4788 -21.3334,-1.9443 -4.1277,-0.8555 -7.7916,-3.0547 -12,-3.5771 -7.4917,-0.9304 -15.1507,0.345 -22.6666,-0.5577 -6.5474,-0.7864 -12.3039,-3.8912 -18.6667,-4.7614 -12.2886,-1.6806 -24.9748,0.2165 -37.3333,-1.8232 -4.1667,-0.6875 -7.7847,-3.001 -12,-3.5244 -11.8356,-1.4697 -24.1,0.5185 -36,-0.2962 -5.5324,-0.3789 -11.9488,-0.5248 -17.3334,-1.7666 -4.1534,-0.9577 -7.6598,-3.0573 -12,-3.3747 -32.5117,-2.3773 -66.0595,-0.073 -98.6666,-0.073 H 1904 c -12.1377,0 -25.3073,-1.4532 -37.3333,0.1914 -4.216,0.5765 -7.7839,3.0407 -12,3.6172 -14.9644,2.0465 -30.4195,-0.1501 -45.3334,1.7018 -6.324,0.7851 -12.22,3.7083 -18.6666,4.5892 -6.6411,0.9072 -13.3951,-0.1449 -20,0.7584 -4.6312,0.6335 -8.7004,3.1455 -13.3334,3.9577 -6.1842,1.0843 -12.5665,0.4017 -18.6666,1.5495 -32.509,6.1159 -65.3114,13.1159 -97.3334,21.3148 -3.7459,0.959 -6.9419,3.2291 -10.6666,4.2295 -3.4958,0.9388 -7.1713,0.497 -10.6667,1.4176 -8.5964,2.264 -16.8193,6.3737 -25.3333,8.9414 -31.9968,9.6494 -65.1501,21.4619 -91.8807,42.209 -7.1154,5.5225 -13.2258,12.7607 -19.5865,19.1221 -7.7475,7.7483 -16.6642,15.1885 -23.3888,23.8528 -12.7814,16.4681 -23.2436,38.8132 -29.6986,58.5476 -1.1281,3.4492 -0.597,7.1702 -1.5359,10.6666 -1.1214,4.1761 -3.7829,7.6498 -4.3848,12 -0.922,6.6634 -0.2246,13.3148 -1.5967,20 -0.8515,4.1488 -3.1614,7.794 -3.7366,12 -1.4698,10.7468 -0.1914,22.4886 -0.1914,33.3334 V 1768 v 429.3333 1325.3334 402.6666 121.3334 c 0,19.2096 3.6427,42.7968 -2.0401,61.3333 -1.1515,3.7562 -2.963,11.0443 -6.3828,13.2962 -5.6339,3.711 -11.6328,-0.6741 -15.5762,-4.5019 -10.7342,-10.4196 -21.4215,-20.8815 -32.0009,-31.461 -16.2838,-16.2838 -31.9025,-34.0957 -49.3334,-49.1419 -4.8807,-4.2129 -10.8044,-6.7389 -15.6141,-11.1256 -9.2578,-8.4434 -17.5036,-18.0739 -27.0525,-26.2025 -3.4994,-2.9792 -7.8543,-4.236 -11.4147,-7.0534 -5.9004,-4.6696 -10.5664,-10.8317 -16.5853,-15.3975 -10.8433,-8.2252 -22.3206,-15.8291 -33.3334,-24.0234 -81.2712,-60.473 -173.6047,-109.8447 -270.66663,-140.1156 -13.83846,-4.3157 -27.32048,-10.5892 -41.33334,-14.2796 -3.48942,-0.9189 -7.15519,-0.5394 -10.66666,-1.3704 -20.02841,-4.7393 -39.66488,-11.0993 -60,-14.9248 -4.39071,-0.8262 -8.92676,-0.018 -13.33334,-0.8047 -4.69352,-0.8379 -8.6783,-3.6452 -13.33333,-4.5287 -11.61149,-2.2031 -24.25269,-0.2832 -36,-1.8899 -4.21582,-0.5765 -7.78434,-3.0407 -12,-3.6172 -13.30501,-1.8197 -27.90308,-0.1914 -41.33333,-0.1914 -22.90813,0 -47.98377,-2.9108 -70.66667,0.1914 -4.21509,0.5765 -7.78784,3.0221 -12,3.6185 -10.15263,1.4375 -20.5907,0.3369 -30.66667,1.7148 -4.20589,0.5752 -7.85103,2.8851 -12,3.7367 -6.63517,1.3616 -13.44112,0.526 -20,1.7705 -11.23925,2.1325 -22.1923,6.955 -33.33333,9.5914 -44.88407,10.6211 -88.49569,27.9291 -129.33333,49.9496 -36.87472,19.8841 -70.11481,45.5202 -101.56071,72.888 -4.48387,3.9023 -9.96224,6.1992 -14.43929,10.0638 -14.50729,12.5225 -27.84115,26.9681 -38.83745,42.4557 -11.04069,15.5502 -25.95955,28.3347 -36.97223,44.072 -20.49912,29.2933 -37.21763,60.6123 -52.12345,93.2809 -2.65891,5.8275 -6.42532,11.3333 -8.6749,17.3333 -10.48234,27.9577 -19.2464,56.739 -26.73148,85.3334 -1.36695,5.222 -0.12743,10.7373 -1.37037,16 -0.98301,4.1621 -3.4596,7.791 -4.25823,12 -1.48633,7.833 -0.15523,16.0491 -1.54938,24 -0.81234,4.6328 -3.32438,8.7018 -3.95781,13.3333 C 110.19681,4286.5833 112,4302.6107 112,4317.3333 V 4372 c 0,9.1211 -1.04515,18.959 0.19137,28 0.87031,6.3633 3.97524,12.1188 4.76131,18.6667 0.74294,6.1888 -0.26996,12.5104 0.57202,18.6666 0.57525,4.2061 2.885,7.8509 3.73662,12 1.36185,6.6351 0.52601,13.4411 1.77057,20 2.13629,11.2585 6.58983,22.3151 9.54424,33.3334 2.81145,10.4853 3.97639,21.4648 6.75103,32 3.69419,14.0267 9.44866,27.6559 14.17489,41.3333 5.83254,16.8789 11.1932,34.2607 18.43726,50.6667 27.17837,61.552 62.83348,120.1966 103.13991,173.3333 13.66897,18.0202 29.5495,33.8522 44.3817,50.8939 3.90228,4.4837 6.19944,9.9625 10.06378,14.4394 12.8588,14.8972 28.38424,31.3828 43.80863,43.6019 3.74642,2.9678 8.1672,4.8392 11.88066,7.89 8.99536,7.39 16.22343,16.9915 25.45268,24.0905 10.28857,7.9137 21.56433,14.9267 31.94751,22.8896 39.79744,30.5222 80.84684,58.9828 124.05249,84.8695 8.88423,5.3232 18.82666,9.0843 28,13.8923 42.56229,22.3072 85.5262,42.5266 130.66666,58.5924 6.85645,2.4401 13.22168,6.2428 20,8.7819 23.12972,8.6631 47.11239,16.0202 70.66667,23.1234 13.88639,4.1878 27.31112,10.5814 41.33333,14.2747 11.37753,2.9968 23.31145,4.557 34.66667,8.0339 7.99854,2.4492 15.92529,5.8525 24,7.9661 5.22209,1.3669 10.7373,0.1273 16,1.3705 11.14233,2.6315 22.09383,7.4586 33.33333,9.5914 4.84147,0.9187 9.83024,-0.067 14.66667,1.0752 4.1626,0.9831 7.79085,3.4593 12,4.2582 6.51725,1.2366 13.3833,0.5761 20,1.7233 4.6077,0.7988 8.7004,3.223 13.3333,3.7981 7.5577,0.9389 15.0812,0.031 22.6667,1.3614 4.6326,0.8122 8.702,3.3242 13.3333,3.9577 11.8339,1.6184 24.0675,0.026 36,1.7151 4.6661,0.6605 8.5779,3.3513 13.3334,3.7325 32.8739,2.6357 67.0098,0.077 100,0.077 25.9561,0 52.801,1.9967 78.6666,-0.077 4.7553,-0.3812 8.6674,-3.072 13.3334,-3.7325 11.9327,-1.6897 24.1661,-0.097 36,-1.7151 4.2151,-0.5765 7.7879,-3.0218 12,-3.6182 8.3699,-1.1852 17.0065,-0.5762 25.3333,-1.7152 4.2057,-0.5752 7.8511,-2.8851 12,-3.7366 6.637,-1.3623 13.4367,-0.5355 20,-1.7705 13.0251,-2.4509 25.8416,-6.5625 38.6667,-9.5915 4.8364,-1.1423 9.8253,-0.1566 14.6666,-1.0752 4.2093,-0.7988 7.8378,-3.2734 12,-4.2581 3.5113,-0.8311 7.1774,-0.4515 10.6667,-1.3705 9.0522,-2.3841 17.6665,-6.8323 26.6667,-9.249 3.4956,-0.9385 7.1715,-0.4971 10.6666,-1.4176 22.729,-5.9867 44.96,-15.4945 66.6667,-24.3282 27.1095,-11.0325 53.1864,-22.2594 78.6667,-36.679 20.3932,-11.5407 40.8605,-22.416 59.9804,-36.0986 4.6486,-3.3269 8.155,-7.8552 12.6049,-11.3767 3.56,-2.8174 7.9161,-4.0739 11.4147,-7.0537 9.4518,-8.0498 20.0109,-17.9603 27.5823,-27.8034 2.4126,-3.1364 3.4867,-6.9798 5.9413,-10.0813 7.5029,-9.4808 15.4189,-18.2644 21.8169,-28.6049 6.2547,-10.1087 9.7874,-20.9974 13.4371,-31.9804 2.7855,-8.3825 7.4769,-16.7341 9.4714,-25.3334 1.4922,-6.4336 0.473,-13.4225 1.8229,-20 0.8516,-4.1491 3.1615,-7.7942 3.7367,-12 1.5864,-11.5996 0.1914,-24.2933 0.1914,-36 v -70.6666 c 0,-34.5782 -1.3511,-69.558 1.4104,-104 0.4515,-5.6302 3.6615,-10.2832 3.8972,-16 2.6828,-65.0847 0.026,-130.8529 0.026,-196 v -1256 -493.3334 -114.6666 c 0,-17.6146 1.9443,-38.1722 18.8931,-48.0886 6.6468,-3.889 13.958,-5.0045 21.1069,-7.29 3.6724,-1.1742 6.8374,-3.405 10.6667,-4.1638 4.3958,-0.871 8.9397,0 13.3333,-0.8229 6.3719,-1.1989 12.082,-3.7994 18.6667,-4.5875 7.0779,-0.8474 14.2804,0.2571 21.3333,-0.7819 16.7287,-2.4646 32.1182,-5.6328 49.3333,-4.8796 11.041,0.4831 21.2124,3.877 32,5.0495 6.6398,0.7217 13.3576,-0.1859 20,0.612 6.1898,0.7435 11.3798,3.3196 17.3334,4.5547 5.2599,1.0911 10.7293,-0.1368 16,1.108 41.7586,9.8627 82.888,23.0251 121.3333,43.1905 37.7373,19.7939 70.4575,47.1507 102.6667,74.5696 3.4995,2.9792 7.8543,4.236 11.4147,7.0537 9.3703,7.4157 16.883,17.152 25.9186,24.9515 4.8807,4.2129 10.8045,6.739 15.6143,11.1257 34.816,31.7542 65.7125,67.7623 100.3857,99.6553 4.4412,4.0852 9.9118,6.4274 14.5474,10.2356 8.5644,7.0358 15.7283,15.7438 24.1193,22.9834 4.0732,3.5144 9.0537,5.6045 13.214,9.0166 8.8333,7.2448 17.8973,14.141 26.6667,21.3334 5.5359,4.5403 10.1616,10.3893 16.1183,14.3971 13.7202,9.2314 27.679,17.9561 41.3343,27.429 9.5467,6.6228 18.1261,14.5668 28.0195,20.6892 41.3745,25.6041 84.6464,50.3476 129.3138,70.0533 21.5703,9.516 44.4714,15.8679 66.6667,23.7657 13.528,4.8138 27.4053,10.5117 41.3333,14.18 3.4955,0.9206 7.1709,0.4788 10.6667,1.4176 10.6491,2.8601 21.1325,7.2399 32,9.5114 3.5137,0.7344 7.1501,0.2774 10.6667,1.1081 12.8245,3.0296 25.6419,7.1409 38.6666,9.5915 4.391,0.8261 8.9268,0.018 13.3334,0.8047 4.693,0.8378 8.6787,3.6455 13.3333,4.5286 5.652,1.0723 11.6165,0.045 17.3333,0.5915 7.069,0.6761 13.1752,3.9824 20,4.9157 11.834,1.6185 24.0674,0.026 36,1.7151 4.2116,0.5964 7.7849,3.0417 12,3.6182 12.0264,1.6449 25.1957,0.1914 37.3334,0.1914 12.1377,0 25.3073,1.4531 37.3333,-0.1914 8.5251,-1.166 16.5013,-4.0752 25.3333,-4.9157 6.5313,-0.6217 13.6371,0.8398 20,-0.9525 10.4437,-2.942 27.948,-9.2728 38.281,-2.5885 C 3235.2122,3089.4421 3232,3108.0762 3232,3124 V 3240 3621.3333 3724 c 0,17.4456 2.4437,37.1367 -6.0609,53.1357 -3.3786,6.3558 -11.3535,4.2276 -15.7858,0.3858 -13.8681,-12.0189 -26.5143,-25.8825 -39.4866,-38.8548 -10.9991,-10.9987 -21.558,-22.9779 -33.3334,-33.142 -4.8808,-4.2129 -10.8047,-6.7389 -15.6142,-11.1256 -9.6231,-8.777 -18.0502,-19.3649 -28.3858,-27.3148 -3.1364,-2.4124 -6.9798,-3.4866 -10.0813,-5.9411 -7.8558,-6.2174 -13.9717,-14.6133 -21.9187,-20.7256 -3.1403,-2.4156 -6.9707,-3.5172 -10.1009,-5.9423 -19.0696,-14.7722 -37.5208,-29.8197 -57.8991,-42.9076 -13.5201,-8.6829 -26.4489,-18.5117 -40.0195,-26.9082 -5.3796,-3.3288 -11.5723,-5.4349 -17.0876,-8.5452 -34.874,-19.6683 -70.1025,-39.9441 -106.8929,-56.1748 -21.5703,-9.5163 -44.4713,-15.8672 -66.6666,-23.7657 -13.528,-4.8138 -27.405,-10.5117 -41.3334,-14.18 -3.4954,-0.9206 -7.1709,-0.4788 -10.6666,-1.4176 -9.0002,-2.4167 -17.6145,-6.8653 -26.6667,-9.2491 -5.6051,-1.4762 -11.6592,-0.914 -17.3333,-2.3395 -21.2417,-5.3359 -42.4214,-9.8961 -64,-13.9557 -11.5993,-2.1823 -24.1934,-0.2174 -36,-1.8887 -4.6664,-0.6608 -8.5778,-3.3515 -13.3334,-3.7327 -17.9816,-1.4417 -36.6235,-0.077 -54.6666,-0.077 -12.9995,0 -27.1213,-1.5696 -40,0.1914 -4.2152,0.5765 -7.7875,3.0222 -12,3.6185 -10.0513,1.4229 -20.7805,0.029 -30.6667,1.8887 -12.4735,2.3467 -24.9132,6.1484 -37.3333,8.722 -12.9504,2.6839 -25.924,4.2175 -38.6667,7.5732 -39.1507,10.3106 -77.6242,27.3764 -113.3333,46.1058 -9.1719,4.8109 -19.1158,8.5691 -28,13.892 -21.3431,12.7877 -41.2771,27.8714 -60.5853,43.1517 -3.5523,2.8108 -7.8903,4.1054 -11.4138,7.0338 -7.2794,6.0501 -13.1871,13.7767 -20.5862,19.6328 -4.0565,3.2103 -8.8449,4.6966 -12.7481,8.2683 -8.9795,8.2168 -15.1736,17.4642 -22.8385,26.5885 -7.7731,9.2533 -17.4487,17.0426 -24.749,26.6667 -31.7779,41.8929 -61.3607,87.0247 -81.787,136 -1.2607,3.0228 -1.0503,6.2662 -2.0698,9.3333 -2.5469,7.6628 -6.7015,14.9229 -9.1771,22.6667 -3.9634,12.3978 -7.0045,24.9407 -10.6471,37.3333 -1.1489,3.9089 -0.4335,8.0648 -1.4886,12 -2.9545,11.0182 -7.4081,22.0749 -9.5443,33.3333 -1.5757,8.3044 -0.044,16.9213 -1.7705,25.3334 -0.8516,4.1491 -3.1615,7.7942 -3.7367,12 -2.9855,21.8307 -0.1914,45.9531 -0.1914,68 0,21.1849 -2.6775,44.3554 0.1914,65.3333 0.809,5.9147 3.7396,11.2845 4.5751,17.3333 0.9679,7.0078 -0.4968,14.4418 0.966,21.3334 0.8971,4.2269 3.6316,7.7376 4.4764,12 0.9573,4.8307 -0.1636,9.858 0.8569,14.6666 0.9946,4.6859 4.0236,8.5052 4.6821,13.3334 0.6032,4.4228 -0.2288,8.9726 0.9126,13.3333 14.8693,56.8053 33.6475,113.2995 59.3045,166.6667 5.2709,10.9635 12.8041,21.5667 18.816,32.2265 14.6004,25.888 29.4747,51.2194 45.9967,75.7744 3.1183,4.6345 7.6224,8.1644 11.0309,12.5648 2.4235,3.1289 3.5445,6.9466 5.9372,10.1009 12.1151,15.9714 25.89,30.4414 39.0485,45.5606 4.2977,4.9381 6.8465,10.9498 11.2829,15.7728 17.9098,19.471 37.2321,39.8574 57.2562,57.1419 4.4769,3.8646 9.9555,6.1615 14.4393,10.0638 8.3587,7.2747 15.4401,16.2845 24.2273,23.0433 9.6604,7.4303 20.2666,14.1201 30.281,21.0771 4.1404,2.8763 7.1904,7.1065 11.1717,10.1967 3.1561,2.4492 6.9148,3.5703 10.1666,5.8033 4.5367,3.1156 8.0009,7.6107 12.3807,10.9278 7.7505,5.8704 16.9204,10.2383 24.9527,15.7389 13.472,9.2262 26.5143,19.4225 40.4002,28.0143 12.271,7.5925 26.0539,13.1986 38.6471,20.3252 32.829,18.5781 66.8011,34.4942 101.3334,49.7282 16.3724,7.223 33.8141,12.4343 50.6666,18.4323 6.8565,2.4401 13.2216,6.2428 20,8.7819 31.444,11.7773 64.2704,21.5697 96,31.9466 10.2001,3.3356 21.626,4.0837 32,6.8692 8.9994,2.4163 17.612,6.8789 26.6667,9.249 5.2321,1.3695 10.7611,0.013 16,1.4176 11.0189,2.9538 22.0745,7.4079 33.3333,9.5443 4.8415,0.9186 9.8301,-0.067 14.6667,1.0752 4.1628,0.9831 7.791,3.4593 12,4.2581 4.8415,0.9187 9.8304,-0.067 14.6667,1.0752 4.1631,0.9831 7.7903,3.4593 12,4.2582 7.833,1.4863 16.0491,0.1552 24,1.5494 4.6328,0.8125 8.7018,3.3243 13.3333,3.9577 7.9072,1.0814 16.0537,-0.3789 24,0.5723 6.9417,0.8304 13.2259,3.9342 20,4.7754 11.8359,1.4697 24.0999,-0.5186 36,0.2962 5.5322,0.3789 11.9489,0.5247 17.3333,1.7666 4.6589,1.0746 8.4287,3.2367 13.3334,3.4229 16.3938,0.623 32.9264,0.025 49.3333,0.025 10.0254,0 20.7152,1.0586 30.6667,-0.1771 9.4199,-1.1696 18.2396,-4.3685 28,-5.0371 11.8997,-0.8148 24.1647,1.1735 36,-0.2962 6.7734,-0.8408 13.0586,-3.945 20,-4.7754 7.9469,-0.9512 16.0921,0.5094 24,-0.5723 4.6308,-0.6331 8.7011,-3.1455 13.3333,-3.9577 7.9502,-1.3942 16.167,-0.063 24,-1.5494 4.6549,-0.8835 8.6396,-3.6911 13.3333,-4.5287 13.2461,-2.3646 26.6794,-3.5449 40,-6.137 4.2071,-0.8187 7.8356,-3.2754 12,-4.2591 17.6908,-4.1794 35.7712,-7.4115 53.3334,-12.0371 8.5966,-2.2644 16.819,-6.3741 25.3333,-8.9415 9.196,-2.7731 19.0205,-4.2395 28,-7.1767 11.7184,-3.8333 23.2445,-9.8815 34.6667,-14.5195 41.9661,-17.0411 82.9882,-37.1166 120.3805,-62.709 8.0407,-5.5033 17.1807,-9.8431 24.9528,-15.739 6.4342,-4.8805 11.8298,-11.1637 17.7191,-16.6591 25.5846,-23.8744 46.0911,-49.5254 60.5195,-81.5948 3.877,-8.6172 5.4658,-16.4485 7.8519,-25.3333 0.999,-3.7201 3.3682,-6.8844 4.1771,-10.6667 1.1139,-5.2096 0.7217,-10.7252 1.8043,-16 0.8516,-4.1491 3.1615,-7.7942 3.7367,-12 2.2861,-16.7155 0.1914,-35.123 0.1914,-52 v -84 c 0,-26.638 -0.7165,-53.4713 1.4105,-80 0.4515,-5.6302 3.6614,-10.2832 3.8971,-16 1.0404,-25.2396 0.026,-50.7369 0.026,-76 V 4104 2916 2436 2304 c 0,-14.5609 -2.1211,-30.9902 0.4395,-45.3333 0.7611,-4.2624 3.124,-7.8682 4.2344,-12 0.8118,-3.0209 0.5247,-6.2595 1.9775,-9.1062 3.821,-7.4873 14.2399,-10.7727 21.3486,-14.1429 10.1088,-4.7923 22.0957,-8.3541 33.3334,-9.7037 4.4095,-0.5297 8.9713,0.075 13.3333,-0.7458 6.3717,-1.1986 12.082,-3.7995 18.6667,-4.5876 16.5045,-1.9759 34.0478,-0.3805 50.6666,-0.3805 16.2556,0 33.1507,-1.3206 49.3334,0.2262 7.0989,0.6784 13.1657,3.4561 20,4.7419 6.1341,1.154 12.5299,-0.3932 18.6666,0.8229 4.2631,0.8447 7.7741,3.5729 12,4.4766 36.7263,7.8538 72.4265,18.5368 106.6667,35.0348 26.3115,12.6777 50.4242,30.9587 74.2861,47.3571 15.4457,10.6146 28.8734,24.2536 43.0472,36.4824 4.8819,4.2119 10.8047,6.739 15.6143,11.1257 12.9606,11.8213 24.445,25.4163 37.7191,36.8743 5.2822,4.5596 11.6087,7.3327 16.748,12.1914 30.5436,28.8763 58.1201,61.694 89.9186,89.142 4.0726,3.5153 9.0563,5.6009 13.2142,9.0166 17.9024,14.7067 33.6791,31.442 52.1192,45.429 14.8994,11.3014 30.8525,21.1683 46.2861,31.7386 15.5488,10.6494 29.7422,23.4518 45.7334,33.3477 37.4157,23.1536 77.127,43.1604 117.3138,61.2614 27.6042,12.4332 55.0505,23.4296 84,32.4576 8.4873,2.6468 16.7402,6.6836 25.3333,8.9467 3.9541,1.0413 8.0843,0.4993 12,1.8261 8.655,2.9326 17.6553,7.4261 26.6667,9.1358 4.8418,0.9186 9.8301,-0.067 14.6667,1.0752 11.1419,2.6315 22.094,7.4589 33.3333,9.5914 6.0964,1.1566 12.4837,0.4655 18.6667,1.5495 4.222,0.7402 7.8558,2.8913 12,3.751 5.1881,1.0762 10.7298,0.2451 16,0.9652 6.0879,0.8317 11.4166,3.288 17.3333,4.401 11.599,2.182 24.1937,0.2174 36,1.889 4.2119,0.5964 7.7848,3.0417 12,3.6182 18.8464,2.5774 39.6361,0.1914 58.6667,0.1914 10.5901,0 22.9508,1.7555 33.3333,-0.3981 3.7018,-0.7679 6.8815,-2.8929 10.6667,-3.4105 11.7477,-1.6065 24.3883,0.3131 36,-1.89 4.208,-0.7985 7.8385,-3.2754 12,-4.2581 4.8359,-1.1423 9.8252,-0.1566 14.6666,-1.0752 4.2077,-0.7985 7.8386,-3.2754 12,-4.2582 6.2894,-1.4853 25.0944,-3.4713 29.322,2.3806 9.3336,12.9196 6.678,31.3245 6.678,46.2428 v 101.3333 397.3334 114.6666 c 0,12.1022 0.9701,24.5619 -3.6256,36 -1.0817,2.6921 -1.6947,6.446 -3.8395,8.5287 -8.2618,8.0234 -18.9209,-6.2175 -24.0215,-11.1963 -18.9782,-18.5251 -37.7575,-37.2432 -56.5134,-55.999 -7.8219,-7.822 -15.3229,-16.7279 -24,-23.6019 -4.178,-3.3096 -9.0455,-5.4033 -13.1061,-8.9372 -8.3584,-7.2747 -15.4401,-16.2845 -24.2272,-23.0433 -3.1361,-2.4121 -6.9801,-3.4866 -10.0814,-5.9411 -5.4411,-4.306 -9.9043,-9.8541 -15.2529,-14.2994 -3.5231,-2.9284 -7.8617,-4.2227 -11.4137,-7.0339 -10.9336,-8.653 -21.1797,-18.2682 -32.6377,-26.2861 -46.7211,-32.6944 -95.514,-61.4265 -146.6143,-86.9766 -38.0905,-19.0452 -78.5632,-35.3193 -118.6667,-48.4352 -3.4498,-1.1283 -7.1692,-0.5967 -10.6666,-1.5358 -9.0007,-2.4173 -17.614,-6.8649 -26.6667,-9.2491 -17.5625,-4.6253 -35.6426,-7.8577 -53.3333,-12.0371 -12.8249,-3.0299 -25.6416,-7.1409 -38.6667,-9.5914 -6.9928,-1.3158 -14.2614,-0.4789 -21.3333,-1.9444 -4.128,-0.8554 -7.7917,-3.0547 -12,-3.5771 -8.7953,-1.0921 -17.836,0.4372 -26.6667,-0.4033 -4.7474,-0.4519 -10.0186,-0.5336 -14.6667,-1.5052 -4.6842,-0.9792 -8.4127,-3.3734 -13.3333,-3.5762 -14.4613,-0.596 -30.998,-1.7949 -45.3333,0.1657 -4.6696,0.6386 -8.5772,3.3499 -13.3334,3.7314 -12.7474,1.0228 -26.0146,0.017 -38.6666,1.5876 -4.6328,0.5752 -8.7256,2.9997 -13.3334,3.7982 -7.0309,1.2187 -14.4404,0.3265 -21.3333,1.7561 -39.4284,8.1781 -79.346,18.0844 -117.3333,32.3272 -16.7849,6.2933 -33.3168,15.54 -49.3334,23.6676 -68.166,34.5905 -129.6347,81.4541 -179.8086,139.6071 -3.5143,4.0733 -5.6009,9.0563 -9.0166,13.2142 -3.9352,4.7904 -8.8948,8.6726 -12.6972,13.5716 -2.4502,3.1569 -3.5742,6.9115 -5.8037,10.1667 -9.2263,13.472 -19.5456,26.3125 -28.0153,40.3799 -7.4154,12.3161 -12.8324,25.653 -19.2585,38.4411 -4.6276,9.209 -10.3757,18.5387 -14.0081,28.2265 -4.7536,12.6787 -8.1524,25.9219 -12.5567,38.6667 -4.18,12.096 -7.2851,23.6315 -10.2119,36 -0.9847,4.1615 -3.4596,7.7913 -4.2581,12 -0.8334,4.3926 0.048,8.9375 -0.8229,13.3333 -0.8448,4.2618 -3.5795,7.7735 -4.4766,12 -1.3718,6.4629 -0.4274,13.4082 -1.5833,20 -0.8122,4.6328 -3.3243,8.7019 -3.9577,13.3334 -1.0199,7.4576 0.2998,15.167 -0.4177,22.6666 -0.6761,7.069 -3.9824,13.1752 -4.9157,20 -1.1198,8.1882 -0.1914,17.0739 -0.1914,25.3334 0,10.569 -0.7675,21.4651 0.077,32 0.3812,4.7552 3.0719,8.6673 3.7324,13.3333 1.6895,11.9323 0.097,24.166 1.7152,36 0.9332,6.8249 4.2396,12.931 4.9157,20 0.5468,5.7161 -0.4808,11.682 0.5914,17.3333 0.7989,4.2097 3.2748,7.8369 4.2582,12 1.041,4.4076 0.3333,8.89 0.887,13.3334 0.5925,4.7552 3.3565,8.72 4.4463,13.3333 0.9329,3.9495 0.2956,8.1016 1.4414,12 16.4919,56.1133 33.6071,112.0332 59.2337,165.3333 2.0635,4.2917 5.5258,7.7657 7.7406,12 18.6735,35.7012 40.082,69.6615 63.1514,102.6143 3.2106,4.5863 7.9684,7.8587 11.15,12.4381 8.6149,12.4001 17.7103,25.3314 27.4981,36.9467 6.8248,8.0992 15.0156,14.9209 21.9557,22.8948 3.9023,4.4841 6.1995,9.9629 10.0638,14.4395 12.8591,14.8971 28.3841,31.3828 43.8086,43.6019 3.7464,2.9677 8.1673,4.8395 11.8809,7.8899 8.9957,7.3897 16.2229,16.9916 25.4524,24.0905 2.7715,2.1319 6.0977,3.1149 8.9528,5.0772 4.5355,3.1165 8.0033,7.6077 12.3806,10.928 9.7679,7.4092 20.177,14.1293 30.2861,21.072 4.9925,3.4284 8.6738,8.5195 13.7139,11.8961 21.2024,14.2061 42.3187,29.3578 64.0195,42.7849 5.8737,3.6341 12.6432,5.8769 18.6471,9.2942 6.8636,3.9069 13.0853,9.0638 20,12.7923 52.3334,28.2195 106.9232,51.8926 162.6667,71.7325 22.3148,7.942 44.1234,16.9583 66.6667,24.4362 9.5885,3.1806 19.858,4.3597 29.3333,7.57 13.6357,4.6197 27.3665,10.4957 41.3333,14.1738 3.4899,0.9189 7.1547,0.5394 10.6667,1.3704 18.3278,4.3369 36.1888,10.2097 54.6667,14.3838 4.8418,1.0938 9.8528,0.4792 14.6666,1.6162 4.1625,0.9834 7.7914,3.4597 12,4.2582 4.3887,0.8326 8.9271,0.018 13.3334,0.8047 4.6927,0.8375 8.6787,3.6455 13.3333,4.5286 6.9889,1.3262 14.2624,0.4792 21.3333,1.9447 3.6856,0.7636 6.9756,2.6943 10.6667,3.3886 6.5215,1.2269 13.3981,0.031 20,0.9323 6.4476,0.8802 12.3418,3.8041 18.6667,4.5892 12.6533,1.571 25.9183,0.5645 38.6666,1.5876 5.1817,0.4157 9.4854,3.43 14.6667,3.8457 24.9893,2.0036 50.9235,0.077 76,0.077 25.0771,0 51.0104,1.9265 76,-0.077 5.182,-0.4157 9.485,-3.43 14.6667,-3.8457 12.7477,-1.0231 26.014,-0.017 38.6666,-1.5876 6.7728,-0.8405 13.0593,-3.945 20,-4.7754 6.5752,-0.7871 13.5215,0.5651 20,-0.7789 49.8662,-10.3435 100.1524,-19.3103 149.3334,-32.2624 22.7288,-5.986 44.9603,-15.4945 66.6666,-24.3281 11.7914,-4.7985 24.3496,-8.473 36,-13.6176 24.9134,-11.0006 48.7748,-24.5761 72,-38.608 14.2722,-8.6224 29.3718,-17.1133 42.6667,-27.1983 6.0189,-4.5654 10.6849,-10.7278 16.5853,-15.3974 4.0596,-3.2126 8.8655,-4.655 12.7418,-8.2683 5.4408,-5.0716 8.1986,-11.4964 12.8314,-17.136 3.9352,-4.7901 8.8952,-8.6732 12.6973,-13.5716 9.4756,-12.2087 17.5934,-26.9974 23.8714,-41.2142 5.8672,-13.2878 8.2754,-27.767 12.7181,-41.3334 1.0703,-3.2688 3.3503,-5.9423 4.1367,-9.3333 1.4043,-6.0566 -0.2376,-12.5371 0.8568,-18.6667 0.916,-5.1315 4.0716,-9.4772 4.7174,-14.6666 2.7891,-22.3991 0.1771,-46.7504 0.1771,-69.3334 V 4014.6667 3484 c 0,-99.0111 -2.4049,-198.3561 0.02,-297.3333 0.2226,-9.0996 -0.127,-20.4672 1.7122,-29.3334 1.1856,-5.7158 3.5586,-9.9537 3.6003,-16 1.1673,-169.7594 0,-339.5693 0,-509.3333 v -1001.3333 -80 c 0,-13.2074 0.9778,-26.8366 -0.077,-40 -0.3483,-4.3457 -2.6569,-7.8197 -3.5241,-12 -1.8392,-8.8669 -1.4896,-20.2328 -1.7122,-29.3334 -2.0111,-82.1113 -0.02,-164.5273 -0.02,-246.6666 v -161.3334 c 0,-25.6145 2.9857,-53.2627 -0.1771,-78.66663 -0.5924,-4.75586 -3.3567,-8.72006 -4.4466,-13.33334 -1.1445,-4.84537 -0.2265,-9.79134 -0.901,-14.66666 -0.6016,-4.35091 -3.2643,-7.82227 -4.3848,-12 -0.9394,-3.50456 -0.4043,-7.14909 -1.1562,-10.66667 -2.4427,-11.42448 -8.791,-23.40039 -14.3867,-33.55957 -3.28,-5.9554 -5.5079,-12.81185 -9.4047,-18.38802 -3.2073,-4.58919 -7.9681,-7.8584 -11.15,-12.43815 -2.3275,-3.35026 -3.4938,-7.11556 -6.1895,-10.28093 -6.667,-7.82812 -14.4723,-12.37923 -22.4176,-18.47233 -17.6429,-13.53027 -36.2705,-25.00358 -57.3858,-32.80143 -13.58,-5.0153 -28.4853,-5.57552 -42.6666,-7.58333 -3.7819,-0.53548 -6.9646,-2.64356 -10.6667,-3.41146 -9.1654,-1.90104 -19.9896,-0.39811 -29.3333,-0.39811 -6.0824,0 -12.8363,-0.83562 -18.6667,1.17285 M 5284,864 c 9.7458,10.81901 27.1605,2.58398 39.8809,5.75098 3.0768,0.76595 5.2916,3.10058 8.2382,4.13704 2.9095,1.02344 6.0876,0.50716 8.988,1.55729 11.6253,4.20866 21.2783,11.84603 31.2777,18.54232 3.4446,2.30664 7.4205,2.78516 10.4648,5.82943 3.3304,3.3304 3.8503,7.96517 6.6794,11.59765 3.5716,4.58594 8.9153,7.88542 11.8453,12.97006 3.9802,6.90657 4.8754,13.63867 7.4043,20.82942 1.1996,3.41114 3.7832,5.80729 4.3581,9.50489 1.0781,6.93424 -1.0472,14.3789 0.6143,21.22851 0.9547,3.9362 4.0849,6.69173 4.7191,10.77149 3.1572,20.30822 0.1966,43.37952 0.1966,63.94762 v 102.6666 c 0,120.3721 -2.25,240.9854 0.01,361.3334 0.1331,7.1093 5.0013,11.748 5.3014,18.6718 2.014,46.4698 0.026,93.4763 0.026,139.9948 v 969.3334 c 0,159.0979 1.0947,318.2396 -0,477.3333 -0.055,8.0495 -5.1777,13.4134 -5.3261,21.3333 -2.1397,114.1312 -0.01,228.5131 -0.01,342.6667 V 4042.6667 4140 c 0,20.1406 2.8951,42.7275 -0.1966,62.6143 -0.6342,4.0797 -3.7644,6.8349 -4.7191,10.7714 -1.765,7.2767 0.9736,15.2305 -0.8353,22.4952 -0.766,3.0765 -3.1006,5.291 -4.1371,8.2382 -2.8369,8.0664 -3.8304,17.015 -6.8971,24.987 -1.5563,4.0456 -5.5182,6.4349 -7.8691,9.9453 -1.7474,2.6094 -2.2419,5.7731 -4.0248,8.3633 -4.6409,6.7429 -11.9446,12.4082 -17.7213,18.1849 -5.7774,5.7774 -11.4421,13.0801 -18.1849,17.7214 -7.7516,5.3352 -16.5427,9.4541 -24.3633,14.6914 -3.1875,2.1347 -5.4219,5.4332 -8.7695,7.3619 -12.1856,7.0215 -25.7956,11.6993 -38.0596,18.5847 -3.391,1.9036 -5.637,5.1816 -8.8076,7.362 -6.5088,4.4762 -15.2806,8.0169 -22.4619,11.3867 -3.2588,1.5293 -6.835,0.8991 -10.167,2.0709 -6.1543,2.1651 -11.5463,6.889 -17.6787,9.1094 -2.9014,1.0502 -6.0775,0.5339 -8.988,1.5573 -6.154,2.1647 -11.5465,6.8893 -17.6787,9.1094 -8.0719,2.9219 -16.8887,4.0423 -24.988,6.8906 -2.9476,1.0368 -5.1608,3.3708 -8.2382,4.1371 -4.2836,1.0667 -8.8685,-0.2803 -13.0951,1.1962 -8.0091,2.7982 -16.014,7.4226 -24.2383,9.4704 -4.2835,1.0668 -8.8681,-0.2803 -13.095,1.1963 -2.9505,1.0309 -5.1599,3.3705 -8.2383,4.1371 -5.5713,1.387 -11.5814,-0.5183 -17.1618,0.8352 -3.5059,0.8503 -6.0176,3.6299 -9.5049,4.4981 -5.5713,1.387 -11.5817,-0.5182 -17.1618,0.8353 -3.5052,0.8502 -6.0179,3.6299 -9.5048,4.498 -5.5717,1.3871 -11.5811,-0.5182 -17.1618,0.8353 -3.9362,0.9548 -6.6914,4.085 -10.7715,4.7191 -8.2897,1.289 -16.9671,-0.8711 -25.2614,0.3932 -4.5081,0.6869 -7.5859,4.2429 -12.0719,4.9401 -11.7653,1.8294 -24.1566,-1.401 -35.9281,0.3932 -4.9512,0.7546 -8.2767,4.6146 -13.3724,5.0586 -31.9105,2.7806 -65.2702,0.078 -97.3138,0.078 h -44 c -7.3278,0 -15.3672,0.9303 -22.6143,-0.1966 -4.4866,-0.6973 -7.5631,-4.2533 -12.0719,-4.9402 -11.7718,-1.7942 -24.1624,1.4362 -35.9281,-0.3932 -4.486,-0.6972 -7.5638,-4.2532 -12.0719,-4.9401 -6.9131,-1.0537 -14.3802,1.0824 -21.1947,-0.6142 -4.4462,-1.1071 -7.3359,-4.4255 -12.1243,-4.8376 -6.4509,-0.555 -13.556,1.0775 -19.8757,-0.4958 -3.4869,-0.8681 -5.9996,-3.6481 -9.5048,-4.498 -4.2712,-1.0362 -8.861,0.3118 -13.0547,-1.1963 -2.9561,-1.0632 -5.1612,-3.3809 -8.2787,-4.1371 -5.5794,-1.3531 -11.5911,0.5518 -17.1618,-0.8352 -3.4866,-0.8682 -5.9996,-3.6482 -9.5048,-4.4981 -5.5795,-1.3532 -11.5915,0.5518 -17.1618,-0.8353 -8.2246,-2.0478 -16.2292,-6.6722 -24.2383,-9.4704 -4.6156,-1.6123 -9.7217,0.097 -14.3213,-1.5572 -18.3512,-6.6003 -36.6003,-13.3438 -55.012,-19.7761 -4.2276,-1.4766 -8.8109,-0.1295 -13.0951,-1.1963 -3.0771,-0.7659 -5.2907,-3.0999 -8.2383,-4.137 -8.0993,-2.8483 -16.9163,-3.9688 -24.9879,-6.8906 -6.1322,-2.2201 -11.5251,-6.9447 -17.6787,-9.1094 -3.3314,-1.1719 -6.9086,-0.5417 -10.167,-2.071 -5.486,-2.5742 -10.7842,-6.5853 -16.4997,-8.5957 -2.9082,-1.0228 -6.0885,-0.5078 -8.988,-1.5573 -6.1321,-2.22 -11.525,-6.9446 -17.6787,-9.1094 -2.9085,-1.0227 -6.0882,-0.5078 -8.9879,-1.5572 -9.4017,-3.4037 -18.0235,-9.7689 -27.1192,-13.9291 -3.2828,-1.5019 -6.8828,-0.8652 -10.2142,-2.0709 -10.8974,-3.9454 -23.1149,-10.7168 -33.1748,-16.5137 -3.7402,-2.155 -6.1676,-5.9642 -9.9404,-8.082 -15.7256,-8.8288 -33.1019,-14.9141 -48.7262,-23.918 -5.514,-3.1774 -8.8467,-9.1725 -14.1029,-12.6953 -18.4775,-12.3838 -38.0407,-23.4131 -56.3633,-36.0248 -4.8541,-3.3411 -8.0696,-8.6911 -12.97,-11.9752 -3.0127,-2.0192 -6.5772,-2.5775 -9.4619,-4.8744 -4.2266,-3.3652 -7.3633,-8.1041 -11.8715,-11.1256 -3.013,-2.0196 -6.5765,-2.5772 -9.4619,-4.8744 -7.7871,-6.2002 -13.5508,-14.8255 -21.4053,-20.9427 -3.2539,-2.5338 -7.3636,-3.1517 -10.5947,-5.7239 -8.4782,-6.7504 -15.8242,-15.6104 -23.4866,-23.2719 -10.2393,-10.2379 -21.2738,-20.0836 -30.8549,-30.9381 -3.1152,-3.5296 -3.8336,-8.029 -6.6741,-11.6761 -6.1172,-7.8542 -14.7419,-13.6182 -20.9421,-21.4053 -2.5722,-3.2308 -3.1907,-7.3415 -5.7246,-10.5947 -4.582,-5.8835 -10.9648,-10.2393 -15.6087,-16.072 -2.5723,-3.2307 -3.1911,-7.3418 -5.7246,-10.5947 -3.3197,-4.2627 -8.0527,-7.373 -11.1253,-11.8372 -1.7829,-2.5905 -2.2774,-5.7539 -4.0248,-8.3633 -2.1347,-3.1875 -5.4329,-5.4219 -7.3619,-8.7695 -3.2546,-5.6485 -5.0075,-12.4756 -8.6381,-17.8972 -5.6233,-8.3971 -12.985,-16.0166 -18.0286,-24.7695 -7.0046,-12.1562 -12.1738,-25.5631 -18.5589,-38.0605 -4.5065,-8.8207 -10.5853,-17.8073 -13.9548,-27.1146 -1.0498,-2.8998 -0.5338,-6.0788 -1.5573,-8.9877 -2.1647,-6.1536 -6.8893,-11.5465 -9.1094,-17.679 -2.9222,-8.0716 -4.0419,-16.888 -6.8906,-24.9876 -2.7484,-7.8138 -6.2897,-15.2227 -9.1094,-23.0124 -1.0498,-2.8997 -0.5341,-6.0788 -1.5572,-8.9876 -1.0365,-2.9473 -3.3708,-5.1615 -4.1371,-8.2383 -0.9613,-3.8607 0.1025,-7.9619 -0.8353,-11.8285 -0.8502,-3.5052 -3.6299,-6.0182 -4.498,-9.5048 -0.9613,-3.8607 0.1025,-7.9616 -0.8353,-11.8285 -0.9548,-3.9365 -4.0846,-6.6917 -4.7191,-10.7715 -0.8109,-5.2158 0.6374,-10.7353 -0.6142,-15.8952 -0.8503,-3.5055 -3.6299,-6.0182 -4.4981,-9.5048 -1.8086,-7.2644 0.9297,-15.2188 -0.8353,-22.4952 -0.9547,-3.9362 -4.0846,-6.6917 -4.7191,-10.7714 -2.0992,-13.5026 1.6657,-27.7517 -0.3932,-41.2614 -0.7545,-4.9515 -4.6146,-8.2761 -5.0586,-13.3724 -0.9642,-11.0645 -1.5875,-24.9551 0.1185,-35.9281 0.7686,-4.943 4.6169,-8.2575 5.0586,-13.3909 0.9792,-11.3835 -1.4811,-23.3145 0.2747,-34.6091 0.6345,-4.0804 3.7644,-6.835 4.7191,-10.7715 1.765,-7.276 -0.9733,-15.2311 0.8353,-22.4951 0.8682,-3.4873 3.6478,-5.9993 4.4981,-9.5049 0.9378,-3.8668 -0.126,-7.9674 0.8352,-11.8284 0.9812,-3.9408 4.0905,-6.6817 4.7191,-10.8054 0.5293,-3.4713 -0.2405,-7.0944 0.6143,-10.528 0.7663,-3.0768 3.1006,-5.292 4.137,-8.2382 2.8487,-8.0993 3.9684,-16.9161 6.8906,-24.9877 2.0655,-5.7054 6.071,-10.9336 8.5957,-16.4531 1.502,-3.2832 0.865,-6.8822 2.071,-10.2135 2.0492,-5.6608 5.8799,-11.0814 8.6214,-16.448 4.5843,-8.9723 8.1973,-18.6673 13.2256,-27.3938 1.9284,-3.3467 5.2279,-5.5827 7.362,-8.7696 5.2376,-7.8209 9.3555,-16.611 14.6914,-24.3632 3.0729,-4.4649 7.805,-7.5739 11.1253,-11.8373 2.5336,-3.2529 3.1524,-7.3642 5.7246,-10.5947 6.1403,-7.7119 14.1794,-14.374 21.1377,-21.3529 3.9899,-4.0016 6.1931,-10.8187 10.1309,-14.1227 2.6787,-2.2474 6.3284,-2.6497 9.0234,-5.1615 3.1836,-2.9668 3.5856,-6.9472 6.1905,-10.0524 2.3447,-2.7946 6.9856,-3.4638 9.8352,-5.9423 7.14,-6.209 12.9011,-14.0964 20.3067,-19.9929 3.2308,-2.5723 7.3408,-3.1904 10.5947,-5.7243 4.263,-3.32 7.3727,-8.0524 11.8373,-11.1253 7.7519,-5.3356 16.5426,-9.4541 24.3632,-14.6914 3.1869,-2.1341 5.4222,-5.4333 8.7696,-7.362 8.7441,-5.0384 18.5924,-8.3109 27.3929,-13.2513 3.761,-2.1116 6.1295,-6.0576 9.9414,-8.0563 3.5537,-1.8633 7.7431,-0.9434 11.388,-2.6104 9.0954,-4.1601 17.7181,-10.5253 27.1191,-13.929 8.0723,-2.9225 16.8881,-4.0417 24.988,-6.8906 8.0013,-2.8141 16.0163,-7.4232 24.2383,-9.4704 3.8613,-0.9616 7.9612,0.1029 11.8284,-0.8353 3.5049,-0.8499 6.0179,-3.6299 9.5049,-4.498 3.861,-0.9613 7.9619,0.1025 11.8285,-0.8353 3.5048,-0.8503 6.0175,-3.6299 9.5048,-4.4981 7.265,-1.8089 15.2185,0.9297 22.4952,-0.8352 3.9368,-0.9548 6.6904,-4.0847 10.7714,-4.7191 11.7657,-1.8291 24.1563,1.4007 35.9281,-0.3932 4.9515,-0.7546 8.2757,-4.6146 13.3724,-5.0586 10.9408,-0.9535 22.3304,-0.078 33.3138,-0.078 7.7552,0 16.2783,-0.9957 23.9476,0.1966 4.4857,0.6973 7.5638,4.2533 12.0719,4.9402 11.7712,1.7939 24.1625,-1.4359 35.9281,0.3932 4.0807,0.6344 6.8343,3.764 10.7715,4.7191 5.5794,1.3531 11.5911,-0.5518 17.1618,0.8352 3.4876,0.8685 5.9987,3.6478 9.5048,4.4981 5.5795,1.3532 11.5912,-0.5518 17.1618,0.8353 3.4873,0.8681 5.999,3.6478 9.5049,4.498 3.8662,0.9378 7.9684,-0.1256 11.8285,0.8353 3.9394,0.9808 6.6823,4.0905 10.8053,4.7191 3.472,0.5293 7.0937,-0.2409 10.528,0.6142 3.0762,0.766 5.292,3.101 8.2383,4.1371 2.9092,1.0231 6.0879,0.5075 8.9879,1.5573 7.7865,2.8183 15.196,6.3789 23.0121,9.1094 3.8167,1.3333 7.9147,0.3665 11.8284,0.9752 3.697,0.5749 6.0934,3.1582 9.5049,4.3581 2.9092,1.0231 6.0876,0.5071 8.988,1.5573 9.8515,3.5667 18.4609,10.9655 28.3453,14.4427 2.9092,1.0234 6.0879,0.5075 8.988,1.5573 6.1322,2.22 11.5251,6.9446 17.6787,9.1094 2.9092,1.0234 6.0876,0.5071 8.988,1.5572 10.8977,3.9454 23.1145,10.7172 33.1748,16.5137 3.7399,2.155 6.1679,5.9642 9.9404,8.082 15.7256,8.8285 33.1012,14.9148 48.7262,23.918 8.7526,5.043 16.3724,12.4053 24.7696,18.0287 7.8206,5.2376 16.6116,9.3558 24.3632,14.6914 4.4642,3.0729 7.5746,7.8056 11.8373,11.1256 2.9036,2.2611 6.5075,2.8174 9.4961,4.8744 4.8538,3.3411 8.07,8.6914 12.97,11.9752 3.0121,2.0189 6.5778,2.5782 9.4619,4.8744 5.8324,4.6439 10.1885,11.0273 16.072,15.6094 3.2532,2.5338 7.3639,3.1516 10.5947,5.7239 7.7874,6.2005 13.5508,14.8252 21.4053,20.9427 3.6471,2.8405 8.1468,3.5583 11.6761,6.6738 19.0918,16.8523 36.3942,36.3132 54.4053,54.322 L 5008.5329,3496 c 7.6614,7.6621 16.5215,15.0088 23.2715,23.4867 2.5722,3.2307 3.191,7.3414 5.7246,10.5947 7.3359,9.4193 17.428,16.7096 25.3258,25.6572 3.4125,3.8662 4.2451,8.889 7.6237,12.7747 4.8226,5.5459 11.3294,9.9997 15.5091,16.072 2.057,2.9883 2.6133,6.5924 4.8747,9.4961 4.8454,6.2217 11.9785,10.6618 16.4587,17.1706 2.0569,2.9886 2.6132,6.5924 4.8746,9.496 3.8366,4.9265 9.6618,8.4167 12.4307,14.1407 3.5501,7.3388 8.1514,12.1914 14.0413,17.9056 2.1325,2.0687 4.7103,5.0742 7.9734,5.0299 6.0865,-0.083 5.3505,-8.4206 5.359,-12.4909 V 3604 3425.3333 2826.6667 2677.3333 2640 c -3e-4,-4.1344 1.0967,-10.6273 -2.138,-13.862 -2.9935,-2.9935 -8.6931,-2.1618 -12.5287,-2.137 -13.4433,0.087 -24.0075,10.7969 -36.2262,15.2204 -8.0719,2.9222 -16.8884,4.0419 -24.988,6.8906 -2.9449,1.0358 -5.1617,3.3711 -8.2382,4.137 -3.8594,0.961 -7.9626,-0.1022 -11.8285,0.8353 -3.5062,0.8503 -6.0179,3.6299 -9.5049,4.4981 -3.86,0.9609 -7.9622,-0.1026 -11.8284,0.8352 -3.5062,0.8503 -6.0179,3.6299 -9.5049,4.4981 -5.5706,1.387 -11.582,-0.5179 -17.1618,0.8353 -3.9362,0.9547 -6.6917,4.0849 -10.7715,4.7191 -6.5501,1.0182 -13.3743,-0.6055 -19.928,0.3932 -4.5072,0.6868 -7.5863,4.2428 -12.072,4.9401 -16.9388,2.6334 -36.1292,0.1966 -53.2809,0.1966 -17.1514,0 -36.3424,2.4368 -53.2809,-0.1966 -4.4873,-0.6976 -7.5629,-4.2529 -12.072,-4.9401 -10.0335,-1.529 -20.566,1.1657 -30.5947,-0.3932 -4.0804,-0.6345 -6.8353,-3.7644 -10.7715,-4.7191 -7.276,-1.765 -15.2308,0.9733 -22.4951,-0.8353 -3.4863,-0.8678 -5.9997,-3.6478 -9.5049,-4.4981 -4.2715,-1.0361 -8.861,0.3122 -13.0547,-1.1962 -2.957,-1.0635 -5.1604,-3.3809 -8.2786,-4.1371 -5.5804,-1.3535 -11.5912,0.5518 -17.1618,-0.8353 -3.486,-0.8678 -6,-3.6478 -9.5049,-4.498 -3.8668,-0.9378 -7.9674,0.126 -11.8284,-0.8353 -3.9421,-0.9815 -6.6807,-4.0902 -10.8054,-4.7191 -3.47,-0.529 -7.0953,0.2406 -10.528,-0.6142 -8.222,-2.0472 -16.2366,-6.6563 -24.2382,-9.4704 -13.4063,-4.7152 -27.626,-7.3864 -40.988,-12.224 -9.401,-3.4036 -18.0231,-9.7685 -27.1191,-13.929 -3.2832,-1.5016 -6.8825,-0.8649 -10.2142,-2.071 -3.8571,-1.3965 -8.1742,-3.9111 -11.8467,-5.8213 -24.5645,-12.7767 -50.694,-23.5488 -74.6615,-37.359 -8.7529,-5.0436 -16.3724,-12.4053 -24.7695,-18.0287 -13.1546,-8.8089 -27.3226,-16.3825 -40.3633,-25.358 -4.8541,-3.3412 -8.0696,-8.6911 -12.97,-11.9753 -7.8187,-5.2399 -16.6117,-9.3561 -24.3633,-14.6914 -6.5091,-4.4801 -10.9489,-11.6133 -17.1706,-16.4587 -3.2536,-2.5338 -7.3639,-3.1523 -10.5947,-5.7246 -7.7871,-6.1998 -13.5508,-14.8248 -21.4053,-20.942 -3.6468,-2.8402 -8.1468,-3.5589 -11.6761,-6.6742 -34.5859,-30.528 -64.4095,-66.553 -98.1439,-98.0286 -4.1898,-3.9092 -9.6233,-4.9017 -13.8561,-8.638 -16.1588,-14.2627 -29.6279,-31.5681 -45.8919,-45.7097 -3.2341,-2.8122 -7.1647,-3.4632 -10.5947,-5.8242 -6.5088,-4.4798 -10.9489,-11.6133 -17.1706,-16.4587 -3.2536,-2.5338 -7.364,-3.1523 -10.5947,-5.7246 -5.8327,-4.6439 -10.1885,-11.0267 -16.072,-15.6087 -2.9036,-2.2614 -6.5071,-2.8174 -9.4961,-4.8747 -4.8541,-3.3411 -8.0696,-8.6911 -12.97,-11.9752 -7.8194,-5.2403 -16.6088,-9.3584 -24.3633,-14.6914 -3.1709,-2.1807 -5.4164,-5.458 -8.8076,-7.362 -5.3334,-2.9942 -11.4271,-4.8646 -16.7263,-7.918 -3.3476,-1.929 -5.582,-5.2275 -8.7695,-7.362 -6.582,-4.4075 -15.2796,-8.0804 -22.5081,-11.3867 -3.2829,-1.5016 -6.8825,-0.8649 -10.2142,-2.0709 -6.1325,-2.2201 -11.5248,-6.9447 -17.6787,-9.1094 -8.0993,-2.8493 -16.9157,-3.9688 -24.988,-6.8906 -7.9564,-2.8799 -16.0615,-7.4773 -24.2786,-9.4704 -3.8672,-0.9378 -7.9675,0.126 -11.8285,-0.8353 -3.4863,-0.8682 -5.9997,-3.6478 -9.5049,-4.4981 -5.5807,-1.3535 -11.5905,0.5518 -17.1618,-0.8352 -3.4863,-0.8679 -6.0003,-3.6482 -9.5048,-4.4981 -5.5808,-1.3535 -11.5905,0.5518 -17.1618,-0.8353 -3.9411,-0.9811 -6.6813,-4.0905 -10.8054,-4.7191 -16.514,-2.5166 -33.9856,1.1755 -50.6276,-0.2747 -5.499,-0.4792 -9.1679,-4.7018 -14.6914,-5.1771 -5.6354,-0.4847 -13.0954,-0.9977 -18.609,0.3395 -4.4313,1.0749 -7.3379,4.4252 -12.072,4.8376 -16.6422,1.4502 -34.1132,-2.2419 -50.6276,0.2747 -4.1246,0.6286 -6.8639,3.7377 -10.8053,4.7191 -5.571,1.3871 -11.5817,-0.5182 -17.1618,0.8353 -3.5062,0.8503 -6.0179,3.6299 -9.5049,4.4981 -5.5706,1.387 -11.582,-0.5183 -17.1618,0.8352 -3.1175,0.7562 -5.3235,3.0674 -8.2786,4.1371 -8.0723,2.9219 -16.8883,4.0413 -24.988,6.8906 -9.402,3.3073 -18.1393,9.693 -27.1663,13.929 -4.069,1.9092 -8.6774,0.8018 -12.5671,3.3109 -5.4879,3.5401 -14.6419,11.9076 -16.9339,18.1006 -3.6601,9.8897 -0.7851,25.3838 -0.7851,35.8809 V 2348 v 524 1218.6667 146.6666 c 0,24.8106 1.0485,49.8763 -0.026,74.6615 -0.2647,6.1029 -4.7168,10.0488 -5.2295,16.0104 -2.8594,33.2396 -0.078,67.9531 -0.078,101.3281 v 93.3334 32 c 0,5.4616 0.9095,11.8841 -0.4176,17.2142 -2.0472,8.222 -6.6559,16.2369 -9.4704,24.2382 -1.1719,3.3317 -0.542,6.9082 -2.071,10.1667 -3.4947,7.4479 -8.218,12.7468 -12.6953,19.4323 -1.7474,2.6094 -2.2418,5.7731 -4.0247,8.3633 -3.8311,5.5657 -9.7555,10.22 -14.5205,14.9857 -5.1025,5.1028 -10.0941,11.4863 -16.0524,15.5872 -7.7523,5.3359 -16.5423,9.4538 -24.3633,14.6914 -3.1875,2.1348 -5.4222,5.4336 -8.7695,7.362 -8.7442,5.0384 -18.5925,8.3105 -27.3929,13.2513 -3.7725,2.1178 -6.2009,5.9274 -9.9405,8.082 -13.5309,7.7966 -28.5146,14.6947 -42.6624,21.3333 -3.6348,1.7058 -7.7425,0.9148 -11.3932,2.5847 -5.5192,2.5244 -10.7474,6.5303 -16.4525,8.5957 -3.3317,1.206 -6.931,0.569 -10.2142,2.071 -5.5159,2.5227 -10.7467,6.5429 -16.4525,8.5957 -4.1933,1.5084 -8.7832,0.1601 -13.0547,1.1962 -3.1171,0.7562 -5.3242,3.0674 -8.2786,4.1371 -2.9001,1.0495 -6.0785,0.5342 -8.988,1.5573 -8.0019,2.8144 -16.0159,7.4232 -24.2382,9.4704 -3.8601,0.9609 -7.962,-0.1026 -11.8285,0.8352 -3.1172,0.7562 -5.3223,3.0736 -8.2786,4.1371 -4.1931,1.5078 -8.7839,0.1605 -13.0547,1.1963 -3.5056,0.8502 -6.0179,3.6299 -9.5049,4.498 -5.5706,1.3871 -11.5817,-0.5182 -17.1618,0.8353 -3.5059,0.8503 -6.0179,3.6299 -9.5049,4.4981 -5.5709,1.387 -11.5817,-0.5183 -17.1618,0.8352 -3.5055,0.8503 -6.0182,3.6299 -9.5048,4.4981 -7.2644,1.8086 -15.2188,-0.9297 -22.4952,0.8353 -3.9365,0.9547 -6.691,4.0849 -10.7714,4.7191 -10.028,1.5592 -20.5616,-1.1361 -30.5948,0.3932 -4.5088,0.6868 -7.5853,4.2428 -12.0719,4.9401 -16.9759,2.6393 -34.9437,-2.1953 -51.9281,0.3932 -4.9515,0.7546 -8.2763,4.6146 -13.3724,5.0586 -16.1829,1.4098 -33.0657,0.078 -49.3138,0.078 -11.1731,0 -23.5735,1.5199 -34.6142,-0.1966 -4.9434,-0.7682 -8.2569,-4.6168 -13.391,-5.0586 -16.6233,-1.4297 -34.1237,2.2884 -50.609,-0.2747 -4.4867,-0.6973 -7.5632,-4.2533 -12.072,-4.9401 -10.0338,-1.5293 -20.566,1.166 -30.5947,-0.3932 -4.4863,-0.6973 -7.5635,-4.2533 -12.0719,-4.9402 -6.5544,-0.999 -13.377,0.6254 -19.9281,-0.3932 -4.0797,-0.6341 -6.835,-3.7643 -10.7715,-4.7191 -5.5801,-1.3535 -11.5911,0.5518 -17.1618,-0.8352 -3.4869,-0.8682 -5.9996,-3.6478 -9.5048,-4.4981 -4.2719,-1.0361 -8.8607,0.3119 -13.0547,-1.1963 -2.9564,-1.0635 -5.1608,-3.3808 -8.2787,-4.137 -5.5801,-1.3535 -11.5908,0.5517 -17.1618,-0.8353 -3.4869,-0.8682 -5.9996,-3.6478 -9.5048,-4.4981 -3.8669,-0.9378 -7.9681,0.126 -11.8285,-0.8352 -3.9404,-0.9812 -6.6816,-4.0905 -10.8053,-4.7191 -3.4711,-0.5293 -7.0943,0.2405 -10.5279,-0.6143 -3.0779,-0.7663 -5.291,-3.1002 -8.2386,-4.137 -2.9087,-1.0228 -6.0874,-0.5078 -8.9876,-1.5573 -7.7865,-2.8184 -15.1965,-6.3786 -23.0124,-9.1094 -4.616,-1.6126 -9.7212,0.097 -14.3209,-1.5573 -18.354,-6.6012 -36.611,-13.304 -55.0124,-19.776 -2.9085,-1.0228 -6.0877,-0.5078 -8.9876,-1.5573 -6.132,-2.2201 -11.5254,-6.9447 -17.6791,-9.1094 -2.9085,-1.0228 -6.0877,-0.5078 -8.9876,-1.5573 -6.1323,-2.22 -11.5252,-6.9443 -17.679,-9.1094 -2.9082,-1.0227 -6.0881,-0.5078 -8.9877,-1.5572 -6.1321,-2.2201 -11.525,-6.9444 -17.679,-9.1094 -2.909,-1.0231 -6.0876,-0.5075 -8.9876,-1.5573 -9.8521,-3.5671 -18.4608,-10.9652 -28.3457,-14.4427 -7.1901,-2.5293 -13.9232,-3.4248 -20.8293,-7.4043 -3.7397,-2.1546 -6.1676,-5.9642 -9.9403,-8.082 -19.1868,-10.7715 -40.3299,-18.2653 -59.393,-29.2514 -5.0847,-2.93 -8.3843,-8.274 -12.9701,-11.8457 -2.9038,-2.2613 -6.5067,-2.8183 -9.4961,-4.8743 -2.7897,-1.9186 -4.8195,-4.7552 -7.6367,-6.6419 -13.1543,-8.8093 -27.3231,-16.3822 -40.3633,-25.3581 -4.4642,-3.0729 -7.5747,-7.8057 -11.8372,-11.1257 -2.9038,-2.2613 -6.5075,-2.817 -9.4961,-4.8743 -4.4642,-3.0729 -7.5746,-7.8053 -11.8373,-11.1257 -3.2534,-2.5338 -7.3637,-3.1516 -10.5947,-5.7239 -7.7873,-6.2005 -13.5508,-14.8252 -21.4053,-20.9427 -3.2532,-2.5335 -7.3642,-3.152 -10.5947,-5.724 -13.0932,-10.4251 -24.4503,-24.2334 -36.2871,-36.0709 -11.4889,-11.4903 -24.8851,-22.5118 -35.0041,-35.2204 -2.5724,-3.2308 -3.1902,-7.3412 -5.7242,-10.5947 -4.5822,-5.8835 -10.9652,-10.2396 -15.6091,-16.072 -2.8779,-3.6142 -3.5946,-8.152 -6.6738,-11.6933 -4.8229,-5.5466 -11.3294,-9.9997 -15.5093,-16.072 -1.783,-2.5905 -2.2772,-5.7539 -4.0247,-8.3633 l -21.3334,-32 c -2.1347,-3.1875 -5.4331,-5.4218 -7.3621,-8.7695 -3.0532,-5.2988 -4.9237,-11.3932 -7.9177,-16.7266 -2.118,-3.7724 -5.9275,-6.2005 -8.0823,-9.9401 -11.7206,-20.3405 -22.022,-42.7314 -32,-63.9961 -1.7053,-3.6337 -0.9147,-7.7425 -2.5843,-11.3925 -2.5246,-5.5196 -6.5303,-10.7478 -8.5957,-16.4532 -4.8374,-13.3619 -7.5091,-27.5813 -12.2243,-40.9876 -2.8143,-8.0016 -7.423,-16.0163 -9.4702,-24.2383 -0.9613,-3.8607 0.1025,-7.9616 -0.8353,-11.8284 -0.8503,-3.5056 -3.6297,-6.0179 -4.4981,-9.5049 -1.387,-5.571 0.5183,-11.582 -0.8352,-17.1618 -0.7562,-3.1175 -3.0736,-5.3223 -4.1369,-8.279 -1.5083,-4.1936 -0.1605,-8.7832 -1.1965,-13.0543 -0.8502,-3.5056 -3.6297,-6.0179 -4.498,-9.5049 -2.1136,-8.4889 0.6998,-17.9059 -0.6141,-26.528 -0.6872,-4.5091 -4.2429,-7.585 -4.9404,-12.0719 C 1997.825,4043.361 2000,4026.11 2000,4010.6667 v -49.3334 c 0,-8.1823 -1.0614,-17.1904 0.1965,-25.2809 0.6342,-4.0801 3.7643,-6.835 4.7192,-10.7715 1.5431,-6.3616 -0.069,-13.4443 0.4958,-19.928 0.4124,-4.7338 3.7627,-7.6403 4.8375,-12.072 1.3535,-5.5804 -0.5517,-11.5908 0.8353,-17.1618 2.0477,-8.2239 6.6724,-16.2298 9.4702,-24.2382 1.6123,-4.6153 -0.096,-9.722 1.5576,-14.321 0.9078,-2.5241 2.8835,-4.4753 3.7758,-7.0124 1.1717,-3.332 0.542,-6.9085 2.0709,-10.1666 2.5744,-5.4864 6.5851,-10.7849 8.5957,-16.5 1.0233,-2.9092 0.5077,-6.0879 1.5576,-8.9877 2.0492,-5.6605 5.8799,-11.0817 8.6215,-16.4479 4.5839,-8.972 8.1969,-18.6673 13.2252,-27.3939 1.9289,-3.3476 5.2276,-5.582 7.3622,-8.7695 5.4142,-8.0846 9.4817,-17.8516 15.5411,-25.4619 3.365,-4.2262 8.1044,-7.3636 11.1255,-11.8714 2.0189,-3.0124 2.5778,-6.5775 4.8745,-9.4619 4.6439,-5.8324 11.0269,-10.1885 15.6091,-16.072 2.2614,-2.9036 2.8172,-6.5071 4.8745,-9.4961 3.8312,-5.5657 9.7554,-10.22 14.5205,-14.9857 6.6175,-6.6178 12.9634,-14.2395 20.2871,-20.0709 2.8846,-2.2969 6.4497,-2.8555 9.4619,-4.8744 6.5609,-4.3971 11.044,-11.5534 17.2048,-16.459 3.2305,-2.5719 7.3416,-3.1904 10.5947,-5.7239 4.2629,-3.3203 7.3731,-8.0527 11.8373,-11.1257 19.3618,-13.3274 39.427,-24.4987 60.5268,-35.2786 8.8208,-4.5068 17.807,-10.5853 27.1143,-13.9551 2.9,-1.0495 6.0791,-0.5345 8.9876,-1.5573 6.1545,-2.1653 11.5462,-6.889 17.679,-9.1094 8.072,-2.9218 16.8881,-4.0423 24.9877,-6.8906 8.0016,-2.8144 16.0161,-7.4232 24.2386,-9.4704 5.5706,-1.387 11.5817,0.5183 17.1616,-0.8352 3.5059,-0.8506 6.0179,-3.6299 9.505,-4.4981 4.2836,-1.0667 8.8682,0.2803 13.0948,-1.1963 3.4142,-1.1927 5.8066,-3.7832 9.505,-4.3581 8.2905,-1.289 16.9668,0.8711 25.2614,-0.3932 4.509,-0.6868 7.5853,-4.2428 12.0719,-4.9401 16.9387,-2.6334 36.1291,-0.1966 53.281,-0.1966 17.1515,0 36.3426,-2.4368 53.2809,0.1966 4.4865,0.6973 7.5631,4.2533 12.0719,4.9401 10.0332,1.5293 20.5668,-1.166 30.5948,0.3932 4.0802,0.6342 6.8349,3.7644 10.7714,4.7191 5.5803,1.3535 11.5909,-0.5517 17.1617,0.8353 3.4871,0.8682 5.9995,3.6478 9.505,4.4981 4.2715,1.0361 8.8605,-0.3122 13.0545,1.1962 2.9566,1.0635 5.1615,3.3809 8.2788,4.1371 3.8663,0.9378 7.9681,-0.126 11.8283,0.8353 3.9406,0.9811 6.6818,4.0905 10.8055,4.7191 3.4715,0.5292 7.0939,-0.2409 10.5279,0.6142 8.2221,2.0472 16.2369,6.6559 24.2386,9.4704 2.909,1.0228 6.0875,0.5078 8.9876,1.5573 13.0607,4.7278 25.9087,9.834 39.0122,14.4427 2.9092,1.0228 6.0879,0.5078 8.988,1.5573 9.401,3.4036 18.0234,9.7689 27.1191,13.929 3.6507,1.6699 7.7591,0.8789 11.3932,2.5847 14.1481,6.6386 29.1315,13.5364 42.6625,21.3333 3.7392,2.1543 6.1679,5.9642 9.9404,8.082 15.7256,8.8288 33.1016,14.9147 48.7262,23.918 3.3477,1.9287 5.5821,5.2272 8.7696,7.362 3.0133,2.0179 6.5774,2.5781 9.4619,4.8743 4.2269,3.3659 7.3629,8.1042 11.8714,11.1257 5.7894,3.8802 13.2884,5.4062 19.0299,9.358 4.8539,3.3409 8.07,8.6914 12.9701,11.9753 3.0124,2.0189 6.5775,2.5781 9.4619,4.8743 4.2269,3.3659 7.363,8.1042 11.8714,11.1257 3.0127,2.0192 6.5772,2.5775 9.4619,4.8743 7.7875,6.2006 13.5508,14.8256 21.4053,20.9428 3.2533,2.5335 7.3643,3.152 10.5947,5.7239 9.3581,7.4512 16.6156,17.4792 25.64,25.3262 3.8858,3.3789 8.9085,4.2109 12.7748,7.6237 19.8401,17.5127 37.8242,37.7376 56.539,56.4544 13.2285,13.2302 28.6872,25.9216 40.3373,40.5537 2.8776,3.6143 3.5947,8.152 6.6741,11.6934 9.4857,10.9088 21.654,19.6627 30.6592,30.9733 2.5719,3.2305 3.1911,7.3415 5.7246,10.5947 6.1172,7.8545 14.7419,13.6179 20.9421,21.4053 2.5722,3.2308 3.191,7.3415 5.7246,10.5947 4.9798,6.3942 10.3151,10.3809 13.8447,17.819 3.501,7.3773 11.4909,12.4737 16.8145,18.5049 5.3593,6.0716 7.9244,13.1761 13.9456,19.1943 2.917,2.9161 7.5208,9.3513 12.3548,8.0661 5.3366,-1.4189 4.1761,-9.5791 4.1781,-13.6657 v -40 V 3772 v -594.6667 -148 V 2992 c -4e-4,-4.1344 1.0963,-10.6276 -2.1381,-13.862 -2.6536,-2.6536 -7.7487,-2.3489 -11.1901,-2.0599 -10.0218,0.8415 -19.5416,8.6712 -29.3909,10.3981 -5.3565,0.9392 -8.5423,2.948 -13.5072,4.7452 -2.9,1.0498 -6.0787,0.5341 -8.9879,1.5572 -2.9457,1.0359 -5.1621,3.3711 -8.2383,4.1371 -5.571,1.387 -11.5817,-0.5182 -17.1618,0.8353 -3.5055,0.8502 -6.0185,3.6299 -9.5049,4.498 -5.5709,1.3871 -11.5817,-0.5182 -17.1618,0.8353 -3.9362,0.9548 -6.6917,4.085 -10.7714,4.7191 -8.2907,1.2887 -16.9672,-0.8708 -25.2614,0.3932 -5.9499,0.9066 -9.6341,5.0104 -16.0205,5.1305 -26.1967,0.4929 -53.8864,2.2015 -79.9795,-0.072 -5.0967,-0.444 -8.4209,-4.304 -13.3724,-5.0586 -10.0332,-1.529 -20.5664,1.1657 -30.5948,-0.3932 -4.08,-0.6345 -6.8349,-3.7643 -10.7714,-4.7191 -6.8493,-1.6611 -14.2946,0.4639 -21.2286,-0.6142 -4.0804,-0.6345 -6.8343,-3.764 -10.7714,-4.7191 -5.5808,-1.3535 -11.5905,0.5517 -17.1618,-0.8353 -3.4867,-0.8682 -5.9997,-3.6478 -9.5049,-4.4981 -5.5801,-1.3535 -11.5908,0.5518 -17.1618,-0.8352 -3.4866,-0.8682 -5.9997,-3.6478 -9.5049,-4.4981 -3.8665,-0.9378 -7.9677,0.126 -11.8284,-0.8353 -3.9411,-0.9811 -6.681,-4.0901 -10.8054,-4.7191 -3.47,-0.5289 -7.0953,0.2406 -10.528,-0.6142 -8.2216,-2.0472 -16.2369,-6.6563 -24.2382,-9.4704 -2.9089,-1.0231 -6.0879,-0.5075 -8.988,-1.5573 -13.0605,-4.7275 -25.9085,-9.834 -39.012,-14.4427 -2.9089,-1.0231 -6.0879,-0.5075 -8.988,-1.5573 -9.401,-3.4033 -18.0234,-9.7689 -27.1191,-13.929 -3.2829,-1.5016 -6.8828,-0.8649 -10.2142,-2.071 -7.5069,-2.7178 -15.4001,-7.4547 -22.5134,-11.1546 -7.4967,-3.8991 -13.4269,-9.4131 -20.6017,-13.4411 -12.2638,-6.8851 -25.8748,-11.5635 -38.0597,-18.5846 -8.753,-5.0436 -16.3723,-12.4053 -24.7696,-18.0287 -13.1544,-8.8092 -27.3227,-16.3821 -40.3632,-25.358 -4.8539,-3.3409 -8.07,-8.6914 -12.9701,-11.9753 -7.8184,-5.2399 -16.6117,-9.3558 -24.3633,-14.6914 -8.548,-5.8835 -14.3275,-15.4242 -22.5039,-21.792 -3.2532,-2.5338 -7.3639,-3.1523 -10.5947,-5.7246 -7.7873,-6.2002 -13.5506,-14.8249 -21.4053,-20.9421 -3.6471,-2.8405 -8.147,-3.5589 -11.6761,-6.6741 -38.346,-33.8473 -71.4084,-73.7972 -108.8105,-108.6953 -3.8793,-3.6195 -8.7473,-4.4818 -12.7748,-7.6885 -11.3105,-9.0052 -20.0646,-21.1738 -30.9733,-30.6592 -3.2335,-2.8118 -7.1652,-3.4635 -10.5947,-5.8242 -6.509,-4.4801 -10.9489,-11.6133 -17.1706,-16.4587 -3.2534,-2.5338 -7.3641,-3.1523 -10.5947,-5.7246 -5.8327,-4.6439 -10.1883,-11.0263 -16.072,-15.6087 -3.2534,-2.5338 -7.364,-3.1523 -10.5947,-5.7246 -4.2269,-3.3652 -7.3633,-8.1042 -11.8714,-11.1253 -10.8753,-7.2884 -22.5063,-12.7412 -33.8971,-19.3047 -3.3477,-1.9291 -5.5821,-5.2272 -8.7696,-7.362 -5.3873,-3.6077 -12.1502,-5.6204 -17.9023,-8.6123 -8.749,-4.5508 -17.8695,-10.6846 -27.1655,-13.9548 -2.9089,-1.0234 -6.0876,-0.5074 -8.9877,-1.5572 -6.1326,-2.2204 -11.5249,-6.9444 -17.679,-9.1094 -8.0994,-2.8493 -16.9155,-3.9688 -24.9876,-6.8906 -2.9541,-1.0694 -5.1621,-3.3812 -8.2788,-4.1371 -3.8669,-0.9378 -7.9675,0.126 -11.8283,-0.8353 -3.9403,-0.9811 -6.682,-4.0908 -10.8055,-4.7191 -5.1991,-0.7923 -10.7284,0.6638 -15.8612,-0.6142 -3.4867,-0.8682 -6,-3.6478 -9.505,-4.4981 -5.5801,-1.3535 -11.5909,0.5518 -17.1617,-0.8352 -3.9402,-0.9812 -6.6818,-4.0905 -10.8055,-4.7191 -9.5825,-1.4603 -19.6447,0.5661 -29.2942,-0.2748 -5.4994,-0.4791 -9.1674,-4.7018 -14.6914,-5.177 -13.572,-1.1677 -27.7037,-0.078 -41.3282,-0.078 -9.4874,0 -19.9311,-1.2334 -29.3138,0.1966 -4.5083,0.6872 -7.5856,4.2426 -12.0719,4.9402 -11.7658,1.8291 -24.1563,-1.4008 -35.9281,0.3932 -4.1238,0.6286 -6.8649,3.7379 -10.8055,4.7191 -3.8608,0.9612 -7.9614,-0.1026 -11.8283,0.8352 -3.9366,0.9548 -6.6912,4.0847 -10.7714,4.7191 -5.2154,0.8109 -10.7354,-0.6374 -15.8952,0.6143 -6.7017,1.6256 -12.4824,7.1455 -18.9455,9.4704 -5.027,1.8082 -10.5843,-0.1963 -15.5472,2.0709 -16.1784,7.3916 -41.0033,16.6768 -49.5752,33.6016 -1.9735,3.8965 -1.3175,8.8795 -1.3179,13.1061 v 25.3333 90.6667 436 1229.3333 c 0,108.8229 2.0391,217.8646 -0.01,326.6657 -0.1201,6.3867 -4.2239,10.0707 -5.1306,16.0205 -1.6872,11.0713 -0.1965,23.4486 -0.1965,34.6472 V 4836 v 46.6667 c 0,7.7548 0.9958,16.2786 -0.1965,23.9476 -0.6342,4.08 -3.7644,6.8349 -4.7192,10.7714 -0.9378,3.8666 0.1258,7.9681 -0.8353,11.8285 -1.5019,6.0322 -6.1556,12.1406 -8.9826,17.6738 -2.9301,5.735 -4.9606,12.555 -8.6121,17.86 -3.3411,4.8539 -8.6854,8.0736 -11.9753,12.9701 -1.4064,2.0931 -1.7464,4.8981 -3.3569,6.8177 -2.3444,2.7946 -6.9855,3.4642 -9.8354,5.9427 -7.1394,6.2083 -12.9017,14.097 -20.3067,19.9929 -3.2306,2.5719 -7.3415,3.1904 -10.5947,5.7239 -4.586,3.5716 -7.8854,8.9157 -12.9701,11.8457 -15.6243,9.0039 -33.0006,15.0895 -48.7264,23.918 -3.7618,2.1116 -6.1292,6.0579 -9.9412,8.0566 -3.5534,1.863 -7.744,0.9431 -11.3879,2.6101 -9.096,4.1601 -17.7177,10.5253 -27.1194,13.929 -2.8998,1.0495 -6.0791,0.5345 -8.9877,1.5573 -6.1543,2.165 -11.5463,6.889 -17.679,9.1094 -8.0723,2.9222 -16.888,4.0423 -24.9876,6.8906 -8.0015,2.8144 -16.0166,7.4232 -24.2386,9.4704 -3.8604,0.9612 -7.9618,-0.1026 -11.8283,0.8352 -3.5054,0.8503 -6.0183,3.6299 -9.5051,4.4981 -3.8603,0.9613 -7.9617,-0.1025 -11.8283,0.8353 -3.5053,0.8502 -6.0183,3.6299 -9.505,4.498 -3.8602,0.9613 -7.9618,-0.1025 -11.8283,0.8353 -3.5055,0.8503 -6.0181,3.6299 -9.505,4.4981 -5.1328,1.278 -10.6625,-0.1781 -15.8612,0.6142 -4.1237,0.6283 -6.8651,3.738 -10.8055,4.7191 -5.5708,1.387 -11.5819,-0.5182 -17.1616,0.8353 -3.5057,0.8502 -6.0181,3.6299 -9.5051,4.498 -8.4891,2.1136 -17.9057,-0.6998 -26.5278,0.6143 -4.5087,0.6868 -7.5855,4.2428 -12.072,4.9401 -10.3561,1.61 -21.6856,-1.862 -31.895,0.6142 -4.432,1.0752 -7.3379,4.4248 -12.0721,4.8376 -31.9103,2.7803 -65.2701,0.078 -97.3138,0.078 -30.2885,0 -61.8176,2.5498 -91.9804,-0.078 -5.4994,-0.4792 -9.1672,-4.7018 -14.6914,-5.1771 -9.6364,-0.8288 -19.7119,1.2123 -29.2757,-0.2747 -4.4865,-0.6973 -7.5632,-4.2533 -12.072,-4.9401 -6.9132,-1.0537 -14.3799,1.0823 -21.1945,-0.6143 -3.9404,-0.9811 -6.6817,-4.0908 -10.8055,-4.7191 -6.9132,-1.0537 -14.38,1.0824 -21.1945,-0.6142 -3.48722,-0.8682 -5.99935,-3.6478 -9.50512,-4.4981 -4.27124,-1.0361 -8.86076,0.3119 -13.05453,-1.1962 -2.9567,-1.0635 -5.16113,-3.3809 -8.27881,-4.1371 -5.57991,-1.3535 -11.59082,0.5518 -17.16154,-0.8353 -3.48706,-0.8681 -5.99959,-3.6478 -9.50512,-4.498 -4.27133,-1.0362 -8.8606,0.3118 -13.05453,-1.1963 -2.9567,-1.0635 -5.16113,-3.3809 -8.27881,-4.1371 -4.27132,-1.0361 -8.86067,0.3119 -13.05452,-1.1962 -7.96411,-2.8646 -16.05868,-7.4766 -24.27881,-9.4704 -3.8667,-0.9378 -7.96769,0.126 -11.82821,-0.8353 -3.07698,-0.766 -5.2915,-3.1006 -8.2386,-4.1371 -2.90894,-1.0227 -6.08773,-0.5078 -8.98771,-1.5572 -7.78915,-2.8194 -15.19849,-6.361 -23.01229,-9.1094 -2.90894,-1.0228 -6.08765,-0.5078 -8.98771,-1.5573 -13.06071,-4.7276 -25.90894,-9.834 -39.01229,-14.4427 -2.90894,-1.0228 -6.08773,-0.5078 -8.98771,-1.5573 -6.13257,-2.2204 -11.52483,-6.9443 -17.67896,-9.1094 -2.90885,-1.0231 -6.08765,-0.5075 -8.98771,-1.5573 -6.13241,-2.22 -11.52499,-6.9443 -17.67896,-9.1094 -2.90885,-1.0231 -6.08772,-0.5074 -8.98771,-1.5572 -9.40153,-3.4037 -18.02335,-9.7689 -27.1193,-13.9291 -3.28304,-1.5019 -6.88257,-0.8652 -10.21399,-2.0709 -9.30705,-3.3695 -18.29374,-9.4486 -27.11422,-13.9551 -8.97241,-4.584 -18.6674,-8.1966 -27.39404,-13.2253 -3.73963,-2.1546 -6.16777,-5.9642 -9.94035,-8.082 -12.26363,-6.8848 -25.87463,-11.5635 -38.05965,-18.5847 -8.75281,-5.0432 -16.37244,-12.4052 -24.76953,-18.0286 -7.82068,-5.2376 -16.61125,-9.3558 -24.36316,-14.6914 -4.46419,-3.0729 -7.57483,-7.8057 -11.83749,-11.1257 -2.90352,-2.261 -6.50744,-2.8173 -9.49584,-4.8743 -4.46416,-3.0726 -7.57492,-7.8057 -11.83749,-11.1257 -2.9036,-2.261 -6.50732,-2.8173 -9.49585,-4.8743 -4.85388,-3.3411 -8.07011,-8.6914 -12.97017,-11.9753 -3.01245,-2.0188 -6.57735,-2.5778 -9.46196,-4.8743 -7.78735,-6.2005 -13.55074,-14.8252 -21.40535,-20.9427 -3.2533,-2.5335 -7.36397,-3.1517 -10.59465,-5.724 -10.01656,-7.9752 -18.69938,-18.4844 -27.75305,-27.5384 -9.05367,-9.0534 -19.56291,-17.7363 -27.53808,-27.7529 -2.57219,-3.2305 -3.19056,-7.3415 -5.72429,-10.5947 -5.80733,-7.4564 -13.74227,-13.2429 -19.9928,-20.3239 -3.11527,-3.5293 -3.83337,-8.029 -6.67387,-11.6761 -4.58221,-5.8835 -10.96514,-10.2396 -15.60904,-16.072 -2.57229,-3.2308 -3.19052,-7.3415 -5.72429,-10.5947 -3.3198,-4.2624 -8.05281,-7.3731 -11.12551,-11.8373 -3.95215,-5.7418 -5.47981,-13.2389 -9.35803,-19.0299 -5.62341,-8.3971 -12.98541,-16.0169 -18.02881,-24.7695 -5.03833,-8.7442 -8.31048,-18.5925 -13.25102,-27.3929 -2.11794,-3.7728 -5.92751,-6.2009 -8.08231,-9.9405 -3.9021,-6.7721 -8.52566,-15.1764 -11.18003,-22.5084 -1.20606,-3.3314 -0.56938,-6.9307 -2.07101,-10.2136 -4.1605,-9.0963 -10.52539,-17.7181 -13.92899,-27.1198 -1.04985,-2.8997 -0.53439,-6.0787 -1.55762,-8.9876 -2.16482,-6.1536 -6.88894,-11.5462 -9.10905,-17.679 -1.04989,-2.8998 -0.53449,-6.0785 -1.55762,-8.9877 -2.74754,-7.8118 -6.30652,-15.22 -9.10905,-23.0123 -1.35724,-3.7735 -0.38328,-7.8711 -0.9753,-11.7539 -0.62872,-4.1237 -3.73802,-6.8653 -4.71914,-10.8054 -0.96122,-3.8607 0.10248,-7.9616 -0.8354,-11.8284 -0.85031,-3.5056 -3.62974,-6.0179 -4.49793,-9.5049 -0.96118,-3.8607 0.10246,-7.9619 -0.83541,-11.8285 -0.95483,-3.9365 -4.0848,-6.6914 -4.71913,-10.7714 -0.81086,-5.2152 0.6373,-10.7354 -0.6142,-15.8952 -0.85028,-3.5056 -3.62974,-6.0183 -4.49793,-9.5049 -2.11364,-8.4889 0.69977,-17.9063 -0.61419,-26.528 -0.6871,-4.5085 -4.2428,-7.5853 -4.94035,-12.0719 -2.76445,-17.781 -0.19649,-37.9424 -0.19649,-55.9476 0,-19.7136 -2.8299,-41.8155 0.19649,-61.281 0.63436,-4.08 3.76428,-6.8349 4.71914,-10.7714 1.66125,-6.849 -0.46383,-14.2946 0.61419,-21.2286 0.63432,-4.0797 3.76435,-6.8349 4.71914,-10.7714 1.35345,-5.5798 -0.55164,-11.5909 0.83541,-17.1618 0.98106,-3.9401 4.09045,-6.6817 4.71913,-10.8054 0.59207,-3.8834 -0.38204,-7.9801 0.97531,-11.7539 2.80253,-7.7923 6.36151,-15.2005 9.10904,-23.0123 1.02316,-2.9095 0.50772,-6.0879 1.55762,-8.9877 2.2203,-6.1331 6.94409,-11.5247 9.10905,-17.679 1.02344,-2.9095 0.50767,-6.0876 1.55762,-8.9876 2.04927,-5.6608 5.87974,-11.0814 8.6214,-16.448 4.58412,-8.9723 8.19702,-18.6673 13.2253,-27.3938 2.15466,-3.7396 5.96444,-6.168 8.08231,-9.9401 6.42951,-11.4532 11.88943,-23.0866 19.30453,-33.8594 5.88369,-8.5482 15.42423,-14.3275 21.79217,-22.5039 2.53384,-3.2533 3.15208,-7.364 5.72429,-10.5947 12.25342,-15.3897 28.79061,-30.6527 43.54321,-43.6749 3.86605,-3.4127 8.88928,-4.2447 12.7747,-7.6236 7.13973,-6.2084 12.90141,-14.0967 20.30656,-19.9929 7.61051,-6.0592 17.3774,-10.1269 25.46195,-15.541 3.18771,-2.1348 5.42176,-5.4329 8.76954,-7.362 8.74381,-5.0384 18.59265,-8.3105 27.39298,-13.2513 3.39164,-1.904 5.63639,-5.181 8.80766,-7.362 6.45296,-4.4381 16.26908,-9.2314 23.64095,-11.9004 2.90031,-1.0498 6.07861,-0.5341 8.98763,-1.5572 6.15401,-2.1651 11.54655,-6.8894 17.67904,-9.1094 8.07214,-2.9219 16.88798,-4.0423 24.98763,-6.8906 8.00187,-2.8145 16.01631,-7.4232 24.23868,-9.4704 5.57076,-1.3871 11.58159,0.5182 17.1615,-0.8353 3.50582,-0.8506 6.01783,-3.6299 9.50517,-4.4981 4.28369,-1.0667 8.86784,0.2803 13.09465,-1.1962 3.41365,-1.1928 5.80692,-3.7832 9.50516,-4.3581 6.93376,-1.0781 14.37932,1.0469 21.22836,-0.6143 3.93656,-0.9547 6.69148,-4.0849 10.77164,-4.7191 8.09062,-1.2578 17.09847,-0.1966 25.28085,-0.1966 h 50.66666 c 18.43262,0 39.07886,-2.6334 57.28085,0.1966 4.48673,0.6973 7.56307,4.2533 12.07202,4.9402 6.55387,0.9987 13.37744,-0.6254 19.92798,0.3932 4.08024,0.6341 6.83504,3.7643 10.77164,4.7191 5.58,1.3535 11.59074,-0.5518 17.16154,0.8352 3.48706,0.8682 5.99951,3.6478 9.50513,4.4981 5.58,1.3535 11.59074,-0.5518 17.16154,0.8353 8.64258,2.152 16.84668,7.7314 25.50513,9.8314 3.86661,0.9378 7.96777,-0.126 11.8282,0.8352 8.22225,2.0472 16.2369,6.656 24.23861,9.4704 13.40617,4.7149 27.62573,7.3867 40.98771,12.224 9.85222,3.567 18.46069,10.9655 28.34562,14.4427 2.90894,1.0231 6.08765,0.5078 8.98771,1.5573 6.13249,2.22 11.52499,6.9446 17.67899,9.1094 3.3204,1.1679 6.9726,0.4244 10.1615,2.0963 3.4064,1.7865 5.603,5.2152 8.7706,7.3366 6.7253,4.5039 15.2594,7.7116 22.5031,11.4128 12.4975,6.385 25.9047,11.554 38.0607,18.5586 3.7396,2.1546 6.1678,5.9641 9.9403,8.082 5.6556,3.1751 12.5119,4.9573 17.8591,8.638 4.8538,3.3411 8.0701,8.6911 12.9701,11.9753 5.7897,3.8802 13.2882,5.4059 19.0299,9.358 4.8539,3.3412 8.0701,8.6911 12.9701,11.9753 3.0125,2.0189 6.5773,2.5778 9.4619,4.8743 4.2268,3.3656 7.3635,8.1042 11.8715,11.1257 3.0125,2.0189 6.5772,2.5775 9.4619,4.8743 5.8325,4.6439 10.1887,11.0274 16.072,15.6094 3.2533,2.5339 7.364,3.1517 10.5946,5.724 10.0162,7.9752 17.2225,19.9883 27.8715,27.1256 2.6088,1.7487 5.7728,2.2416 8.3632,4.0248 7.5257,5.1803 13.868,13.4036 20.3189,19.8538 l 40.5329,40.5342 c 19.4224,19.4225 40.4145,38.0827 58.5885,58.6715 3.4124,3.8659 4.2448,8.8894 7.6234,12.7748 9.4858,10.9088 21.654,19.6627 30.6595,30.9733 2.5723,3.2308 3.1904,7.3415 5.7243,10.5947 3.3196,4.2624 8.0529,7.3734 11.1255,11.8373 2.3606,3.4296 3.012,7.3606 5.824,10.5947 10.6262,12.2204 20.6296,23.7096 30.6595,36.3066 3.8745,4.8662 5.2128,10.2809 9.7964,14.9138 3.4178,3.4541 13.2762,16.625 18.3622,9.1696 2.3019,-3.3747 1.3701,-9.0476 1.3702,-12.9034 v -28 -108 V 3780 2226.6667 1733.3333 c 0,-20.568 -2.9607,-43.6393 0.1965,-63.9476 0.6976,-4.4873 4.2532,-7.5628 4.9404,-12.0719 1.096,-7.1927 -1.5194,-15.4863 0.9753,-22.4209 2.0359,-5.6598 5.8821,-11.0859 8.6214,-16.4476 2.9303,-5.7353 4.9606,-12.555 8.6121,-17.86 4.9108,-7.1348 12.6744,-13.1374 18.7881,-19.252 6.6281,-6.6289 12.6361,-10.3151 20.1481,-15.3457 3.5113,-2.3515 5.8994,-6.3125 9.9455,-7.8691 2.8773,-1.1068 6.0799,-0.5414 8.9867,-1.5638 7.8143,-2.7484 15.2229,-6.2901 23.0123,-9.1094 2.8999,-1.0498 6.0788,-0.5342 8.9877,-1.5573 7.8139,-2.7484 15.2233,-6.29 23.0123,-9.1094 2.9001,-1.0498 6.079,-0.5341 8.9877,-1.5572 2.9474,-1.0368 5.1613,-3.3708 8.2386,-4.1371 3.4331,-0.8548 7.0573,-0.085 10.5278,-0.6142 4.1235,-0.6286 6.8652,-3.738 10.8055,-4.7191 3.8604,-0.9613 7.9618,0.1025 11.8283,-0.8353 3.5052,-0.8503 6.0182,-3.6299 9.505,-4.4981 5.1332,-1.278 10.6625,0.1781 15.8612,-0.6142 4.1237,-0.6286 6.8651,-3.738 10.8055,-4.7191 5.5705,-1.387 11.5819,0.5182 17.1616,-0.8353 3.5052,-0.8502 6.0181,-3.6299 9.5051,-4.498 5.5704,-1.3871 11.5817,0.5182 17.1616,-0.8353 3.9365,-0.9548 6.6916,-4.0846 10.7715,-4.7191 8.2899,-1.2887 16.9669,0.8708 25.2614,-0.3932 5.4427,-0.8294 8.9477,-4.862 14.6914,-5.111 12.6437,-0.5479 26.1282,1.6846 38.6419,-0.2223 4.9515,-0.7546 8.276,-4.6146 13.3724,-5.0586 34.0946,-2.9711 69.7432,-0.078 103.9805,-0.078 h 74.6666 c 12.2992,0 25.0629,-0.9892 37.3138,0.078 5.4989,0.4791 9.1677,4.7018 14.6914,5.177 16.3319,1.405 32.9786,-1.2666 49.3086,0.1563 5.0969,0.444 8.4209,4.304 13.3724,5.0586 11.7715,1.7939 24.1625,-1.4359 35.9281,0.3932 4.4865,0.6976 7.5635,4.2529 12.0719,4.9401 8.2946,1.264 16.9712,-0.8955 25.2614,0.3932 4.0803,0.6345 6.835,3.7644 10.7715,4.7191 7.2762,1.765 15.2306,-0.9733 22.495,0.8353 3.9406,0.9811 6.6816,4.0905 10.8055,4.7191 6.9131,1.0534 14.3802,-1.0824 21.1945,0.6142 3.4869,0.8682 5.9995,3.6478 9.505,4.4981 4.2708,1.0358 8.8612,-0.3119 13.0545,1.1963 2.9571,1.0635 5.1608,3.3808 8.2788,4.137 5.5798,1.3535 11.591,-0.5517 17.1617,0.8353 3.9404,0.9811 6.6818,4.0905 10.8055,4.7191 5.1984,0.7923 10.7286,-0.6638 15.8611,0.6142 3.4873,0.8682 5.9995,3.6478 9.5051,4.4981 3.8667,0.9378 7.9679,-0.126 11.8283,0.8353 3.9404,0.9811 6.6819,4.0905 10.8055,4.7191 3.4712,0.5292 7.0944,-0.2406 10.5278,0.6142 3.4868,0.8682 5.9997,3.6478 9.505,4.4981 3.8666,0.9378 7.9678,-0.126 11.8283,0.8352 3.4873,0.8682 5.9994,3.6478 9.5051,4.4981 3.8667,0.9378 7.9674,-0.126 11.8283,0.8353 8.2246,2.0478 16.2296,6.6722 24.2386,9.4704 4.6159,1.6126 9.7213,-0.097 14.3209,1.5572 18.3539,6.6013 36.6112,13.3041 55.0124,19.7761 2.9087,1.0231 6.0877,0.5075 8.9876,1.5573 18.3417,6.639 36.6105,13.3037 55.0124,19.776 2.9089,1.0231 6.0876,0.5075 8.9876,1.5573 9.4016,3.4037 18.0235,9.7686 27.1195,13.929 3.2832,1.5017 6.8823,0.865 10.2139,2.071 6.1326,2.2204 11.525,6.9447 17.679,9.1094 2.9089,1.0234 6.0876,0.5075 8.9876,1.5573 9.8522,3.5667 18.4606,10.9651 28.3457,14.4427 3.3319,1.1722 6.9084,0.542 10.1667,2.071 24.8224,11.6477 50.9172,23.651 74.6626,37.3333 3.7396,2.1549 6.168,5.9642 9.9404,8.082 8.8005,4.9404 18.6491,8.2129 27.3929,13.2513 8.753,5.0433 16.3721,12.4053 24.7696,18.0287 13.1546,8.8089 27.3226,16.3821 40.3632,25.358 4.8542,3.3412 8.0697,8.6911 12.9701,11.9753 3.0124,2.0189 6.5775,2.5781 9.4619,4.8747 4.2269,3.3652 7.3636,8.1041 11.8714,11.1253 3.0124,2.0189 6.5775,2.5781 9.4619,4.8747 9.3581,7.4505 16.6156,17.4788 25.64,25.3258 3.2337,2.8119 7.1654,3.4639 10.5947,5.8242 4.7803,3.2904 8.7614,8.2979 12.8516,12.3881 12.5332,12.5332 27.1677,24.5569 38.2048,38.4196 2.8779,3.6145 3.5947,8.152 6.6741,11.6933 6.2083,7.14 14.0967,12.9014 19.9925,20.3067 2.5723,3.2307 3.1908,7.3411 5.7246,10.5947 4.5821,5.8834 10.9649,10.2392 15.6088,16.0719 2.5722,3.2308 3.1907,7.3412 5.7246,10.5947 3.3196,4.2627 8.0527,7.3731 11.1253,11.8373 5.3356,7.7523 9.4541,16.5423 14.6914,24.3633 l 21.3333,32 c 2.1348,3.1878 5.433,5.4218 7.362,8.7695 5.0384,8.7445 8.3106,18.5921 13.2513,27.3929 2.1182,3.7728 5.9271,6.2005 8.082,9.9404 9.7585,16.9362 18.3581,35.6228 26.6667,53.3291 1.7054,3.6341 0.9151,7.7429 2.5847,11.3933 4.1604,9.096 10.5253,17.7177 13.929,27.1191 4.8376,13.362 7.5088,27.5817 12.2239,40.988 2.8142,8.0016 7.4232,16.0162 9.4704,24.2382 0.8548,3.4333 0.085,7.0577 0.6143,10.528 0.6289,4.1244 3.7379,6.8646 4.7191,10.8054 0.9612,3.8607 -0.1026,7.9616 0.8352,11.8284 0.8506,3.5065 3.6299,6.0176 4.4981,9.5049 0.9613,3.8604 -0.1025,7.9619 0.8353,11.8285 0.8502,3.5058 3.6299,6.0182 4.498,9.5048 1.8086,7.2647 -0.9297,15.2185 0.8353,22.4952 0.8503,3.5055 3.6299,6.0182 4.4981,9.5048 1.387,5.5707 -0.5183,11.5817 0.8352,17.1618 0.9548,3.9362 4.085,6.6918 4.7191,10.7715 1.0781,6.9339 -1.0469,14.3792 0.6143,21.2285 0.9547,3.9365 4.0849,6.6918 4.7191,10.7715 1.0185,6.5508 -0.6055,13.3737 0.3932,19.9281 0.6286,4.124 3.7379,6.8649 4.7191,10.8053 1.6966,6.8145 -0.4392,14.2813 0.6142,21.1947 0.6286,4.1243 3.738,6.8642 4.7191,10.8053 1.387,5.571 -0.5182,11.5817 0.8353,17.1618 0.8506,3.5062 3.6295,6.0172 4.498,9.5049 1.8086,7.2643 -0.9297,15.2187 0.8353,22.4951 0.8503,3.5059 3.6299,6.0182 4.4981,9.5049 1.278,5.1328 -0.1781,10.6627 0.6142,15.8613 0.5726,3.7572 3.1211,6.1397 4.3581,9.5791 1.2025,3.3434 0.5573,6.974 0.8568,10.4352 0.414,4.7884 3.7301,7.6771 4.8375,12.1244 1.7936,7.2034 0.8942,12.04 4.4844,18.9271 1.6602,3.1842 2.7096,9.2959 7.7614,7.9518 6.1351,-1.6322 4.1719,-13.0485 4.1719,-17.6647 v -56 V 2252 1560 1394.6667 c 0,-19.7139 -2.8298,-41.8151 0.1966,-61.281 0.6972,-4.486 4.2529,-7.5634 4.9401,-12.0719 1.0537,-6.9134 -1.0827,-14.3796 0.6142,-21.1947 0.766,-3.0765 3.1006,-5.2916 4.1371,-8.2382 1.0234,-2.9095 0.5071,-6.0873 1.5573,-8.988 2.6543,-7.332 7.278,-15.7363 11.1803,-22.5081 5.0931,-8.8379 17.5612,-20.5918 25.9597,-26.3724 2.5895,-1.7823 5.7545,-2.2777 8.3632,-4.0248 9.9909,-6.6904 19.6517,-14.36 31.2777,-18.5423 4.6003,-1.6549 9.7054,0.055 14.3213,-1.5573 13.109,-4.5797 25.9547,-9.7165 39.012,-14.4427 2.9004,-1.0498 6.0788,-0.5342 8.988,-1.5573 2.9486,-1.0371 5.1605,-3.3707 8.2383,-4.137 3.8616,-0.9616 7.9612,0.1025 11.8284,-0.8353 3.5052,-0.8503 6.0176,-3.6299 9.5049,-4.4981 5.571,-1.387 11.5817,0.5183 17.1618,-0.8352 3.5049,-0.85 6.0179,-3.6299 9.5049,-4.4981 3.8613,-0.9613 7.9612,0.1025 11.8284,-0.8353 3.9369,-0.9547 6.6911,-4.0846 10.7715,-4.7191 5.2158,-0.8108 10.7357,0.6371 15.8952,-0.6142 3.5049,-0.8503 6.0176,-3.6299 9.5049,-4.4981 7.2646,-1.8086 15.2184,0.9297 22.4951,-0.8352 3.9368,-0.9548 6.6911,-4.0847 10.7715,-4.7191 8.2897,-1.2888 16.9664,0.8707 25.2614,-0.3932 4.5091,-0.6872 7.5853,-4.2426 12.0719,-4.9402 15.2393,-2.3691 31.3477,1.9304 46.5947,-0.3932 4.9522,-0.7545 8.2754,-4.6146 13.3724,-5.0586 29.2891,-2.5521 59.903,-0.078 89.3138,-0.078 29.4112,0 60.0244,-2.474 89.3138,0.078 5.9414,0.5176 9.8877,4.9655 16.0205,5.2295 17.6781,0.7608 35.6879,-1.4319 53.3129,0.1039 5.0966,0.444 8.4209,4.304 13.3724,5.0586 13.0488,1.9886 26.8147,-0.8708 39.9609,0.2747 5.0957,0.444 8.4216,4.304 13.3724,5.0586 8.2949,1.264 16.971,-0.8955 25.2614,0.3932 4.943,0.7686 8.2568,4.6169 13.3909,5.0586 7.889,0.6787 16.1101,-0.943 23.9424,0.2747 4.0801,0.6345 6.8353,3.7644 10.7715,4.7191 5.5798,1.3535 11.5908,-0.5517 17.1618,0.8353 3.487,0.8682 5.9993,3.6478 9.5049,4.4981 5.5794,1.3531 11.5911,-0.5518 17.1618,0.8352 3.4873,0.8682 5.999,3.6478 9.5048,4.4981 5.5801,1.3535 11.5909,-0.5518 17.1618,0.8353 3.9398,0.9808 6.6817,4.0908 10.8054,4.7191 5.1998,0.7923 10.7282,-0.6638 15.8613,0.6142 3.487,0.8682 5.9997,3.6478 9.5049,4.4981 4.2711,1.0358 8.8607,-0.3122 13.0547,1.1962 2.957,1.0635 5.1608,3.3809 8.2786,4.1371 3.8662,0.9378 7.9684,-0.1257 11.8285,0.8353 3.9401,0.9811 6.6816,4.0905 10.8053,4.7191 3.4717,0.5292 7.0937,-0.2409 10.528,0.6142 3.4876,0.8685 5.999,3.6478 9.5049,4.4981 3.8665,0.9378 7.9681,-0.126 11.8284,0.8352 3.4877,0.8685 5.999,3.6478 9.5049,4.4981 3.8665,0.9378 7.9681,-0.126 11.8285,0.8353 3.0771,0.7663 5.2913,3.1006 8.2382,4.137 2.9092,1.0231 6.0876,0.5075 8.988,1.5573 13.0579,4.7266 25.9027,9.863 39.012,14.4427 4.2269,1.4766 8.8109,0.1296 13.0951,1.1963 8.2223,2.0472 16.2363,6.6559 24.2383,9.4704 8.0999,2.8489 16.9157,3.9681 24.9879,6.8906 6.1322,2.2201 11.5248,6.9447 17.6787,9.1094 3.3314,1.1719 6.9089,0.542 10.167,2.071 5.4857,2.5742 10.7849,6.5852 16.4997,8.5957 2.9098,1.0237 6.0869,0.5071 8.988,1.5572 6.1321,2.2201 11.525,6.9447 17.6787,9.1094 3.3307,1.1716 6.9092,0.5423 10.167,2.071 9.0276,4.236 17.7636,10.6214 27.1663,13.929 2.9085,1.0231 6.0885,0.5075 8.988,1.5573 6.1321,2.2201 11.5247,6.9447 17.6787,9.1094 2.9092,1.0234 6.0879,0.5075 8.9879,1.5573 10.8975,3.9453 23.1149,10.7171 33.1748,16.5137 3.7399,2.1549 6.1677,5.9641 9.9405,8.082 15.7255,8.8284 33.1015,14.915 48.7262,23.918 3.7399,2.1549 6.1676,5.9638 9.9404,8.082 5.656,3.1751 12.5114,4.9573 17.8591,8.638 4.8538,3.3408 8.07,8.6914 12.97,11.9753 13.1514,8.8138 27.3226,16.3825 40.3633,25.358 4.8542,3.3412 8.07,8.6914 12.9701,11.9753 3.0123,2.0189 6.5771,2.5781 9.4619,4.8747 7.7874,6.2002 13.5508,14.8248 21.4053,20.942 3.2535,2.5339 7.3639,3.1524 10.5947,5.7246 7.7874,6.2002 13.5508,14.8249 21.4053,20.9421 4.0706,3.1702 8.8688,4.0384 12.747,7.6885 7.0993,6.6816 15.0655,13.6992 21.1387,21.3271 2.8776,3.6143 3.595,8.152 6.6741,11.6934 11.1237,12.7933 25.433,23.0436 35.9926,36.3066 2.2965,2.8848 2.8554,6.4489 4.8746,9.4619 3.0215,4.5088 7.7598,7.6442 11.1254,11.8715 2.2965,2.8844 2.8558,6.4495 4.8746,9.4619 3.0212,4.5078 7.7601,7.6445 11.1254,11.8714 2.2965,2.8844 2.8558,6.4495 4.8746,9.4619 3.0215,4.5085 7.7601,7.6445 11.1254,11.8714 2.2962,2.8841 2.8571,6.4492 4.8746,9.4619 1.8861,2.8168 4.7237,4.8474 6.642,7.6368 3.9502,5.7438 5.4798,13.2386 9.358,19.0299 5.6234,8.3971 12.9854,16.0166 18.0287,24.7695 8.9798,15.5847 15.7064,32.7054 23.8922,48.7272 9.8363,19.2523 20.2578,38.3653 29.4411,57.9353 1.7051,3.6338 0.9151,7.7431 2.5847,11.3932 2.5244,5.5189 6.5302,10.7474 8.5957,16.4525 2.9225,8.0719 4.0419,16.888 6.8906,24.9879 2.8144,8.002 7.4232,16.016 9.4704,24.2383 0.8548,3.4336 0.085,7.0566 0.6142,10.528 0.6289,4.1244 3.738,6.8646 4.7191,10.8053 0.9609,3.8597 -0.1022,7.9626 0.8353,11.8285 0.8502,3.5059 3.6299,6.0179 4.498,9.5049 1.3871,5.5706 -0.5182,11.5817 0.8353,17.1618 0.8503,3.5055 3.6299,6.0179 4.4981,9.5048 1.387,5.571 -0.5183,11.5817 0.8352,17.1618 1.0749,4.4313 4.4252,7.3382 4.8376,12.072 0.5651,6.4843 -1.0475,13.5657 0.4958,19.928 0.8502,3.5059 3.6299,6.0179 4.498,9.5049 1.278,5.1325 -0.178,10.6628 0.6143,15.8613 0.6868,4.5082 4.2425,7.5853 4.9401,12.072 1.0182,6.5504 -0.6055,13.3743 0.3932,19.928 0.6869,4.5082 4.2425,7.5856 4.9401,12.072 1.0186,6.5508 -0.6055,13.374 0.3932,19.928 0.6286,4.1241 3.738,6.8646 4.7191,10.8054 1.6966,6.8144 -0.4391,14.2815 0.6143,21.1946 0.6286,4.1247 3.7376,6.864 4.7191,10.8054 1.387,5.5709 -0.5183,11.5817 0.8352,17.1618 0.8503,3.5058 3.6299,6.0182 4.4981,9.5048 1.387,5.5713 -0.5182,11.5814 0.8353,17.1618 0.8502,3.5059 3.6299,6.0183 4.498,9.5049 1.3871,5.571 -0.5182,11.5814 0.8353,17.1618 0.8503,3.5059 3.6299,6.0179 4.4981,9.5049 0.9609,3.86 -0.1026,7.9622 0.8352,11.8284 0.7562,3.1172 3.0678,5.3242 4.1371,8.2787 1.0495,2.8997 0.5342,6.0791 1.5573,8.9879 1.9922,5.6634 5.8489,11.1683 8.6214,16.4987 2.9915,5.7513 5.0029,12.517 8.6123,17.9024 4.403,6.5696 11.4342,10.7109 15.321,17.7181 h 2.6666 c 1.752,-3.1833 4.6413,-6.0352 5.8828,-9.4525 3.4932,-9.6156 0.7839,-24.3672 0.7839,-34.5475 v -64 -252 V 1221.3333 1032 986.66667 c 0,-7.08366 -1.3005,-15.64746 0.4176,-22.54753 2.0472,-8.22233 6.6563,-16.23698 9.4704,-24.23828 1.168,-3.32129 0.4242,-6.97201 2.0967,-10.16178 1.7855,-3.4056 5.2155,-5.60352 7.3363,-8.77051 2.0179,-3.01335 2.5778,-6.57715 4.8746,-9.46192 6.487,-8.14778 13.877,-12.00162 22.0863,-17.49902 3.1859,-2.13346 5.4232,-5.43392 8.7695,-7.36198 12.1797,-7.0179 25.5788,-11.86328 38.5082,-16.51367 11.8281,-4.25423 26.3255,4.37663 35.7737,-6.11198 H 5284 m -54.6667,92 v 1469.3333 c -10.3079,-3.0755 -21.4996,-3.7086 -32,-6.5133 -15.7415,-4.2044 -31.6904,-11.7562 -45.3333,-20.6133 -39.9674,-25.9473 -76.4548,-61.4508 -99.5843,-103.54 -22.6813,-41.2731 -30.0505,-90.1791 -38.3148,-136 -8.1706,-45.3015 -16.5736,-90.6019 -24.1872,-136 -5.0833,-30.3106 -9.3291,-60.7285 -16.4261,-90.6667 -6.4661,-27.276 -13.2614,-54.9772 -22.8919,-81.3333 -23.3496,-63.9017 -57.3756,-124.1172 -95.8952,-180 -32.4411,-47.0648 -69.569,-92.017 -112.0338,-130.4405 -59.7601,-54.0726 -127.1078,-98.9476 -198.6667,-135.8815 -30.2331,-15.6045 -62.0547,-28.1543 -93.3333,-41.4785 -160.5466,-68.3903 -333.364,-107.8649 -506.6667,-124.4258 -75.2038,-7.1865 -152.4326,-11.733 -228,-6.5595 -85.8561,5.8779 -172.0719,14.2161 -254.6667,40.5781 -18.7685,5.9902 -37.5677,12.1686 -56,19.1204 -5.3649,2.0235 -16.5582,4.6774 -19.1953,10.2744 -1.5449,3.279 -0.8043,7.9616 -0.8047,11.4795 V 1336 v 84 294.6667 1044 c -17.0846,-2.559 -35.1113,-12.7933 -49.3333,-22.2233 -30.556,-20.2601 -57.6589,-45.3523 -79.2314,-75.1101 -35.0957,-48.4121 -45.5863,-104.9215 -56.001,-162.6666 -8.1706,-45.3015 -16.5739,-90.6019 -24.1872,-136 -5.5394,-33.03 -10.179,-66.1527 -18.4128,-98.6667 -6.2285,-24.5954 -12.1842,-49.4665 -20.9052,-73.3333 -42.3246,-115.8314 -116.5404,-225.3243 -206.5957,-309.2142 -67.9711,-63.3177 -149.085,-114.362 -233.3334,-153.041 C 2502.8579,1639.1266 2292.958,1589.127 2080,1574.5475 c -77.9958,-5.3395 -156.7661,-6.3131 -234.6667,1.2263 -70.2895,6.8027 -140.7684,17.8157 -208,40.2262 -15.6062,5.2021 -31.3195,10.1465 -46.6666,16.0814 -5.0339,1.9466 -14.0653,4.1644 -17.2964,8.7695 -2.8273,4.0296 -1.3703,11.8161 -1.3703,16.4824 v 40 153.3334 584 c 0,739.5859 1.3333,1479.1272 1.3333,2218.6666 H 1572 c -1.7521,-9.8284 -7.4502,-18.9863 -11.5884,-28 -9.5402,-20.7806 -19.7889,-41.2203 -30.6666,-61.3333 -34.0036,-62.8724 -70.5551,-123.181 -112.2245,-181.3333 -33.7847,-47.1491 -70.0888,-93.5241 -109.6398,-136 -49.1538,-52.7891 -100.8204,-103.6185 -157.214,-148.7344 -28.0555,-22.445 -57.3775,-43.3854 -88,-62.1843 -178.571,-109.6214 -424.04146,-167.8268 -612.00003,-46.8251 -32.07418,20.6481 -59.61153,45.8597 -85.45166,73.7438 -21.16264,22.8366 -39.62527,47.4277 -54.73352,74.6666 -88.60519,159.7484 -44.64397,361.8067 44.71809,510.6667 17.14954,28.5677 37.2039,55.89 58.69959,81.3333 111.22445,131.6511 262.80139,218.4558 424.7675,272.4444 38.30241,12.7675 76.68286,25.0556 116,34.3766 126.32293,29.9473 256.84793,37.1881 385.33333,19.0781 89.4108,-12.6022 179.4565,-33.8288 258.6667,-78.8581 24.6746,-14.0266 49.8621,-27.4082 70.5473,-47.2623 4.2118,-4.0423 9.8145,-9.0482 12.2017,-14.4649 4.512,-10.2379 1.251,-27.5631 1.251,-38.6471 0,-25.7523 1.3333,-51.5365 1.3333,-77.3333 v -356 c 0,-475.4688 2.6667,-951.4333 2.6667,-1426.6667 v -370.6667 -108 -32 c 0,-5.1191 -0.8215,-11.1526 1.144,-16 2.7254,-6.7213 9.613,-11.2868 14.856,-15.9329 16.6146,-14.7233 36.1736,-24.7334 56,-34.39 47.7822,-23.2728 99.5618,-35.2217 152,-42.0527 143.9459,-18.7516 299.6225,17.762 418.6666,101.3366 55.1582,38.7236 107.3534,84.5735 156,131.0914 27.4654,26.2634 53.5272,53.9258 81.3334,79.8285 28.9342,26.9534 60.166,51.6982 92,75.1396 97.1569,71.5433 205.4391,117.5023 324,138.8786 79.4144,14.3184 158.8418,14.9844 237.3333,-4.7344 59.2546,-14.886 115.8083,-43.0276 165.3333,-78.498 l 1.3334,1473.3333 h -1.3334 c -1.7522,-9.8287 -7.4502,-18.9863 -11.5885,-28 -9.5404,-20.7806 -19.7887,-41.22 -30.6667,-61.3333 -34.0032,-62.8724 -70.5543,-123.1816 -112.2243,-181.3333 -33.7851,-47.1485 -70.0882,-93.5241 -109.6396,-136 -49.1543,-52.7888 -100.8203,-103.6185 -157.2142,-148.7344 -28.0553,-22.445 -57.3773,-43.3854 -88,-62.1843 -178.571,-109.6214 -424.0415,-167.8268 -612,-46.8251 -32.0744,20.6484 -59.6117,45.8597 -85.4517,73.7438 -21.1622,22.8366 -39.6256,47.4277 -54.7334,74.6666 -88.6038,159.751 -44.6447,361.8034 44.718,510.6667 17.1494,28.5684 37.2039,55.89 58.6997,81.3333 111.2238,131.6511 262.8016,218.4558 424.7674,272.4444 38.3024,12.7675 76.6831,25.0556 116,34.3766 126.3229,29.9476 256.848,37.1881 385.3333,19.0781 89.4105,-12.6022 179.4567,-33.8288 258.6667,-78.8581 24.6745,-14.0266 49.862,-27.4082 70.5475,-47.2623 4.2116,-4.0423 9.8145,-9.0482 12.2015,-14.4649 4.5121,-10.2382 1.251,-27.5628 1.251,-38.6471 0,-25.3089 1.3333,-50.6471 1.3333,-76 v -354.6667 c 0,-474.5797 2.6377,-949.6569 2.6667,-1424 V 2272 2185.3333 c 0,-10.6484 -3.2132,-27.6959 1.7572,-37.3323 2.8616,-5.5482 8.3483,-9.3526 12.9095,-13.4014 11.7737,-10.4512 24.6787,-19.0351 38.6666,-26.2549 112.9509,-58.2978 243.3994,-67.6588 366.6667,-43.0114 80.3978,16.0756 157.0801,46.0798 224,93.9034 54.1589,38.7041 104.6956,83.5745 153.3333,128.8824 28.2367,26.3038 54.4242,54.7862 82.6667,81.0951 42.9001,39.9629 90.4863,76.6266 140,108.0482 89.2959,56.6673 187.5719,92.4411 292,108.6367 59.8288,9.279 121.4388,12.1728 181.3333,1.7676 50.7061,-8.809 98.181,-27.0948 144,-50.0043 32.8682,-16.4339 64.2748,-37.5179 92,-61.6624 l 1.3334,1493.3333 c -35.4929,-74.9095 -72.9538,-147.9941 -118.6709,-217.3333 -37.4844,-56.8532 -79.1976,-110.9382 -123.4353,-162.6667 -33.3336,-38.9785 -69.1481,-77.3187 -107.2272,-111.7734 -39.6159,-35.8457 -79.9319,-71.1523 -124,-101.526 -97.58,-67.2569 -212.3688,-118.0723 -330.6666,-132.4144 -17.3057,-2.098 -34.5664,-5.4707 -52,-6.2338 -78.4092,-3.4313 -158.9623,11.0951 -229.3334,46.2849 -35.1129,17.5589 -67.2933,40.375 -96,67.1152 -27.9072,25.9961 -54.375,56.349 -73.8619,89.2142 -97.5502,164.5205 -55.8376,377.6325 41.9329,532 21.2891,33.6126 46.0299,64.8561 72.3096,94.6667 35.985,40.82 77.1198,74.8932 120.9528,106.8685 70.5247,51.4466 145.0381,91.9791 226.6666,123.0306 125.2683,47.6523 253.9014,78.8424 388,84.7151 57.9099,2.5362 116.0228,-2.7028 173.3334,-10.2386 88.7353,-11.668 178.9625,-34.1129 257.3333,-78.668 24.6745,-14.0273 49.862,-27.4082 70.5475,-47.2623 4.2119,-4.0423 9.8142,-9.0482 12.2015,-14.4649 1.9574,-4.4414 1.251,-9.9157 1.251,-14.6471 v -28 c 0.015,-38.611 1.3333,-77.3307 1.3333,-116 0,-162.2214 -0.2509,-324.4453 0,-486.6667 C 5342.3363,2936.7679 5344,2288.3229 5344,1640 c 0,-73.8307 -2.1764,-147.6221 -3.9805,-221.3333 -2.292,-93.6514 -0.02,-187.6504 -0.02,-281.3334 V 1004 969.33333 c 0,-4.07552 1.1322,-10.4554 -1.3704,-13.98242 -4.0046,-5.64355 -18.8995,-7.05111 -25.2963,-8.40332 -18.4928,-3.90885 -38.8841,-4.30534 -57.3333,0.0339 -9.1943,2.16243 -17.6465,6.43945 -26.6667,9.01855 z"
       id="path1" />
  </g>
</svg>
