<?xml version="1.0" standalone="no"?>
<!DOCTYPE svg PUBLIC "-//W3C//DTD SVG 20010904//EN"
 "http://www.w3.org/TR/2001/REC-SVG-20010904/DTD/svg10.dtd">
<svg version="1.0" xmlns="http://www.w3.org/2000/svg"
 width="1273.000000pt" height="1273.000000pt" viewBox="0 0 1273.000000 1273.000000"
 preserveAspectRatio="xMidYMid meet">
<metadata>
Created by potrace 1.14, written by Peter Selinger 2001-2017
</metadata>
<g transform="translate(0.000000,1273.000000) scale(0.100000,-0.100000)"
fill="#000000" stroke="none">
<path d="M3012 10093 l-863 -3 2 -379 c2 -340 4 -380 18 -379 59 0 214 -28
236 -43 6 -3 22 -9 38 -13 15 -3 27 -11 27 -16 0 -6 8 -10 18 -10 21 0 112
-93 132 -135 8 -16 25 -44 37 -61 20 -27 37 -85 48 -164 2 -14 6 -1157 10
-2540 l6 -2515 -26 -99 c-14 -54 -34 -111 -44 -125 -26 -37 -30 -64 -16 -92 8
-15 10 -30 4 -40 -4 -9 -5 -19 -2 -23 3 -3 -1 -6 -11 -6 -9 0 -19 -6 -22 -14
-3 -8 -22 -22 -42 -31 -49 -22 -83 -41 -91 -52 -11 -17 -126 -41 -206 -43 -44
-1 -91 -3 -105 -4 l-25 -1 0 -320 0 -320 145 -5 145 -6 -152 -2 -153 -2 0 -43
0 -44 378 -7 c207 -3 751 -6 1208 -6 698 0 834 3 843 14 7 8 12 34 11 58 0 23
4 79 10 123 9 74 5 448 -6 503 -3 16 -11 22 -33 22 -86 0 -321 129 -321 176 0
8 -4 14 -10 14 -5 0 -24 30 -41 67 -31 67 -32 71 -31 208 0 77 1 1157 2 2400
l1 2260 34 -70 c106 -218 145 -305 159 -350 8 -27 22 -70 31 -95 9 -25 52
-146 96 -270 44 -124 93 -259 109 -300 16 -41 75 -214 131 -385 56 -170 123
-366 149 -435 26 -69 56 -152 65 -185 22 -78 37 -118 179 -480 35 -88 71 -185
81 -215 10 -30 37 -100 60 -156 40 -93 100 -265 205 -589 23 -71 48 -142 56
-157 8 -14 43 -107 79 -205 36 -98 76 -203 90 -233 13 -30 32 -82 43 -115 11
-33 59 -159 106 -280 47 -121 86 -223 86 -227 0 -3 19 -39 42 -80 53 -94 123
-182 184 -233 65 -54 84 -73 84 -84 0 -5 12 -12 26 -15 35 -9 67 19 61 52 -4
20 -1 23 17 17 11 -3 64 -9 117 -12 83 -5 106 -2 165 17 179 59 230 107 331
311 39 79 78 160 86 179 8 19 26 60 40 90 23 51 167 444 167 455 0 3 9 24 19
48 39 86 217 566 275 742 24 72 48 141 54 155 22 52 63 172 127 375 36 116 89
275 116 355 28 80 100 291 160 470 60 179 116 341 124 360 7 19 23 67 35 105
12 39 36 99 53 135 17 36 32 74 34 84 4 21 66 206 143 426 114 325 234 693
270 829 6 25 15 40 18 34 4 -6 19 -14 34 -18 15 -4 30 -14 32 -23 23 -74 32
-4227 11 -4529 l-8 -113 37 -15 c20 -8 36 -19 36 -24 0 -5 -18 -15 -41 -23
-36 -12 -43 -20 -64 -71 -31 -78 -92 -156 -165 -211 -33 -25 -63 -46 -66 -46
-4 0 -41 -18 -84 -39 -42 -22 -93 -43 -114 -46 -20 -4 -36 -12 -35 -19 1 -6
-3 -24 -9 -39 -15 -36 -15 -57 -1 -57 8 0 9 -24 6 -77 -7 -92 8 -137 47 -147
33 -8 46 -1 46 26 0 12 3 19 6 16 3 -3 5 -85 5 -183 -1 -116 2 -174 9 -170 5
3 10 2 10 -4 0 -5 -4 -11 -9 -13 -15 -5 -22 -51 -11 -68 8 -13 153 -15 1190
-18 l1180 -2 12 27 c9 20 13 122 15 338 1 171 3 310 4 310 7 0 5 54 -2 68 -8
13 -23 17 -77 17 -200 1 -397 116 -480 281 -72 145 -66 -22 -72 2029 -3 1015
-2 2048 2 2295 3 248 7 567 9 710 1 143 5 265 9 270 4 6 11 28 15 50 3 22 19
60 34 85 14 25 32 56 39 70 35 70 80 130 96 130 8 0 19 7 26 15 30 36 172 88
230 84 21 -2 42 -1 45 2 2 3 25 4 49 3 43 -2 44 -2 51 32 3 19 3 39 0 44 -3 6
-45 11 -93 12 l-87 2 85 3 c46 2 87 9 91 15 4 6 7 154 8 328 l1 318 -103 7
c-57 4 -349 4 -648 1 -299 -4 -807 -6 -1129 -6 -647 0 -603 4 -777 -68 -40
-16 -73 -27 -73 -23 0 3 -4 1 -8 -5 -4 -6 -28 -21 -54 -34 -25 -12 -64 -43
-85 -67 -21 -24 -53 -58 -70 -75 -18 -17 -33 -36 -33 -43 0 -6 -11 -22 -25
-35 -22 -21 -101 -192 -131 -285 -7 -22 -38 -112 -69 -200 -31 -88 -83 -245
-116 -348 -64 -199 -296 -899 -374 -1127 -25 -74 -66 -184 -90 -245 -24 -60
-88 -243 -143 -405 -56 -162 -126 -366 -156 -453 -31 -87 -68 -199 -82 -250
-15 -50 -32 -95 -38 -99 -16 -11 -28 -10 -21 2 7 11 -5 13 -43 10 -13 -1 -39
6 -58 15 -30 14 -34 21 -34 53 0 40 -11 74 -85 267 -26 66 -69 183 -97 260
-171 475 -225 620 -247 664 -26 51 -104 252 -131 336 -13 39 -59 165 -102 280
-44 116 -107 289 -140 385 -51 150 -86 241 -128 335 -5 11 -21 49 -36 85 -14
36 -39 94 -56 130 -17 36 -47 117 -68 180 -21 63 -48 138 -60 165 -12 28 -24
71 -26 98 -4 46 -38 121 -74 162 -9 11 -27 36 -38 56 -59 99 -264 235 -400
266 -81 18 -370 21 -1630 16z m3484 -3789 c-1 -8 -7 -19 -12 -22 -5 -4 -10
-15 -11 -24 0 -10 -1 -22 -2 -26 -2 -13 -51 -34 -51 -22 0 6 -9 6 -26 0 -16
-7 -23 -7 -19 0 3 6 1 10 -4 10 -6 0 -11 5 -11 11 0 5 4 8 9 5 5 -3 11 1 14 9
5 10 101 74 114 75 1 0 0 -7 -1 -16z m-51 -114 c-3 -5 -2 -10 2 -10 5 0 9 -20
9 -45 0 -25 -4 -45 -8 -45 -12 0 -26 33 -26 65 0 34 5 45 19 45 6 0 7 -4 4
-10z"/>
</g>
</svg>
